<svg width="432" height="129" viewBox="0 0 432 129" fill="none" xmlns="http://www.w3.org/2000/svg">
<path d="M48.271 112.181V112.119C48.271 108.73 49.1287 106.002 50.844 103.935C52.58 101.868 54.9567 100.835 57.974 100.835C60.33 100.835 62.2313 101.445 63.678 102.664C65.1453 103.883 66.1063 105.671 66.561 108.027L62.81 108.616C62.2313 105.392 60.6297 103.78 58.005 103.78C56.3103 103.78 54.9773 104.483 54.006 105.888C53.0347 107.293 52.549 109.37 52.549 112.119V112.181C52.549 115.095 53.0657 117.224 54.099 118.567C55.1117 119.869 56.4137 120.52 58.005 120.52C59.2863 120.52 60.361 120.107 61.229 119.28C62.097 118.453 62.686 117.193 62.996 115.498L66.747 116.056C66.313 118.474 65.321 120.313 63.771 121.574C62.221 122.835 60.2783 123.465 57.943 123.465C55.1323 123.465 52.8073 122.483 50.968 120.52C49.17 118.577 48.271 115.798 48.271 112.181ZM87.3964 112.181V112.119C87.3964 108.626 88.2747 105.878 90.0314 103.873C91.8087 101.848 94.2061 100.835 97.2234 100.835C100.22 100.835 102.607 101.848 104.384 103.873C106.141 105.878 107.019 108.626 107.019 112.119V112.181C107.019 115.674 106.141 118.422 104.384 120.427C102.607 122.452 100.22 123.465 97.2234 123.465C94.2061 123.465 91.8087 122.452 90.0314 120.427C88.2747 118.422 87.3964 115.674 87.3964 112.181ZM102.772 112.181V112.119C102.772 109.35 102.276 107.262 101.284 105.857C100.313 104.452 98.9594 103.749 97.2234 103.749C95.4874 103.749 94.1234 104.452 93.1314 105.857C92.1601 107.262 91.6744 109.35 91.6744 112.119V112.181C91.6744 114.95 92.1601 117.038 93.1314 118.443C94.1234 119.848 95.4874 120.551 97.2234 120.551C98.9594 120.551 100.313 119.848 101.284 118.443C102.276 117.038 102.772 114.95 102.772 112.181ZM128.87 101.3H132.993V119.745H143.347V123H128.87V101.3ZM165.21 101.3H169.333V119.745H179.687V123H165.21V101.3ZM201.55 101.3H216.43V104.4H205.673V110.352H215.035V113.39H205.673V119.9H216.43V123H201.55V101.3ZM236.905 112.181V112.119C236.905 108.73 237.762 106.002 239.478 103.935C241.214 101.868 243.59 100.835 246.608 100.835C248.964 100.835 250.865 101.445 252.312 102.664C253.779 103.883 254.74 105.671 255.195 108.027L251.444 108.616C250.865 105.392 249.263 103.78 246.639 103.78C244.944 103.78 243.611 104.483 242.64 105.888C241.668 107.293 241.183 109.37 241.183 112.119V112.181C241.183 115.095 241.699 117.224 242.733 118.567C243.745 119.869 245.047 120.52 246.639 120.52C247.92 120.52 248.995 120.107 249.863 119.28C250.731 118.453 251.32 117.193 251.63 115.498L255.381 116.056C254.947 118.474 253.955 120.313 252.405 121.574C250.855 122.835 248.912 123.465 246.577 123.465C243.766 123.465 241.441 122.483 239.602 120.52C237.804 118.577 236.905 115.798 236.905 112.181ZM281.522 104.555H275.105V101.3H292.093V104.555H285.645V123H281.522V104.555ZM313.329 101.3H317.452V123H313.329V101.3ZM338.518 101.3H342.827L348.19 119.28L353.553 101.3H357.366L350.422 123H345.431L338.518 101.3ZM378.286 101.3H393.166V104.4H382.409V110.352H391.771V113.39H382.409V119.9H393.166V123H378.286V101.3Z" fill="#D4AF37"/>
<path d="M28.3402 11H48.3402L56.5402 63.1L67.1402 11H87.1402L97.8402 62.9L106.04 11H123.14L109.34 81H85.2402L75.8402 34.5L66.3402 81H42.2402L28.3402 11ZM135.182 11H154.382V38H175.682V11H194.982V81H175.682V53.4H154.382V81H135.182V11ZM246.993 53.2L239.193 26.6L231.493 53.2H246.993ZM228.693 11H252.393L274.993 81H254.993L250.793 66.4H227.593L223.393 81H206.093L228.693 11ZM286.1 11H305.3V66.2H335.7V81H286.1V11ZM349.792 11H400.492V24.6H368.992V38.4H395.992V51.9H368.992V67.4H400.492V81H349.792V11Z" fill="#D4AF37"/>
</svg>
