<svg width="385" height="244" fill="none" xmlns="http://www.w3.org/2000/svg">
  <path d="M367.1 2.55H18.48c-8.83 0-16 7.17-16 16.01L2.39 226.1a16 16 0 0 0 16 16h348.63a16 16 0 0 0 16-16l.08-207.54a16 16 0 0 0-16-16Z" fill="url(#a)"/>
  <g opacity=".5">
    <path fill-rule="evenodd" clip-rule="evenodd" d="M123.48 17.2c.36.2.77.3 1.2.3.44 0 .84-.1 1.2-.3.36-.2.65-.49.86-.85.21-.37.32-.78.32-1.23 0-.46-.1-.87-.32-1.23a2.2 2.2 0 0 0-.86-.85 2.4 2.4 0 0 0-1.2-.3 2.32 2.32 0 0 0-2.4 2.38c.01.45.12.86.33 1.23.22.36.5.64.87.85Zm2.09-1.1c-.22.25-.52.37-.89.37s-.67-.12-.9-.37a1.42 1.42 0 0 1-.33-.98c0-.42.11-.75.33-.99.23-.24.53-.36.9-.36s.67.12.89.37c.23.24.34.57.34.98 0 .4-.12.73-.34.98Z" fill="url(#b)"/>
    <path d="M115.27 13.71v-.9h-3.02v4.65h1.13v-1.89h1.41v-.88h-1.41v-.98h1.9Z" fill="url(#c)"/>
    <path d="M135.42 12.8v2.79c0 .28.07.49.2.64.14.15.34.23.6.23.27 0 .48-.08.62-.23.14-.15.2-.36.2-.64l.01-2.78h1.13v2.77c0 .42-.09.77-.26 1.05-.18.3-.42.5-.72.65-.3.15-.63.22-1 .22-.36 0-.69-.07-.98-.21a1.64 1.64 0 0 1-.68-.65c-.17-.3-.25-.64-.25-1.06v-2.77h1.13Z" fill="url(#d)"/>
    <path d="M148.62 17.46h1.13V12.8h-1.13v2.88l-1.9-2.88h-1.12v4.65h1.13v-2.87l1.89 2.87Z" fill="url(#e)"/>
    <path fill-rule="evenodd" clip-rule="evenodd" d="M158.94 12.8c.49 0 .91.1 1.28.3.37.2.65.47.85.82.2.35.3.75.3 1.21 0 .46-.1.86-.3 1.21-.2.36-.49.63-.86.82-.37.2-.8.3-1.28.3h-1.74V12.8h1.75Zm-.08 3.68c.43 0 .76-.12 1-.36.24-.23.36-.56.36-.99 0-.43-.12-.76-.36-1a1.35 1.35 0 0 0-1-.36h-.53v2.7h.53Z" fill="url(#f)"/>
    <path d="M169.75 14.65v-.94h1.72v-.9h-2.85v4.65h2.85v-.91h-1.72v-1.02h1.52v-.88h-1.52Z" fill="url(#g)"/>
    <path fill-rule="evenodd" clip-rule="evenodd" d="m181.2 17.46-.97-1.76h-.27v1.76h-1.14V12.8h1.9c.37 0 .68.06.94.19.26.13.45.3.58.53.13.22.2.47.2.74a1.38 1.38 0 0 1-1.04 1.34l1.07 1.85h-1.28Zm-1.24-2.56h.7c.2 0 .36-.05.46-.15.1-.1.16-.25.16-.43a.55.55 0 0 0-.16-.42c-.1-.1-.25-.15-.46-.15h-.7v1.15Z" fill="url(#h)"/>
    <path d="M190.53 17.34a2.39 2.39 0 0 0 1.82-.03 1.39 1.39 0 0 0 .79-1.24c0-.28-.07-.5-.2-.68-.14-.18-.3-.31-.5-.4-.18-.1-.43-.2-.72-.3-.3-.1-.53-.18-.67-.27-.14-.08-.2-.2-.2-.35 0-.14.03-.24.12-.31.08-.08.2-.11.33-.11.16 0 .29.04.39.13.1.08.16.2.16.35h1.23a1.3 1.3 0 0 0-.5-1.02 1.94 1.94 0 0 0-1.24-.37c-.5 0-.91.12-1.23.37a1.2 1.2 0 0 0-.47 1.01c0 .3.07.53.2.71.15.18.3.32.5.41.19.1.43.19.73.28.21.06.37.12.48.17.11.05.2.1.28.18.08.08.12.17.12.29a.4.4 0 0 1-.14.32.63.63 0 0 1-.4.11.58.58 0 0 1-.4-.13.6.6 0 0 1-.18-.4h-1.2a1.35 1.35 0 0 0 .9 1.28Z" fill="url(#i)"/>
    <path d="M209.6 13.71v.94h1.53v.88h-1.52v1.02h1.71v.9h-2.84v-4.64h2.84v.9h-1.71Z" fill="url(#j)"/>
    <path fill-rule="evenodd" clip-rule="evenodd" d="M221.7 13.1c-.36-.2-.79-.3-1.28-.3h-1.74v4.66h1.74c.48 0 .91-.1 1.28-.3.37-.19.65-.46.85-.82.2-.35.3-.75.3-1.2 0-.47-.1-.87-.3-1.22-.2-.35-.48-.63-.85-.82Zm-.35 3.02c-.24.24-.58.36-1 .36h-.54v-2.7h.54c.42 0 .76.11 1 .35.23.24.35.57.35 1 0 .43-.12.76-.35 1Z" fill="url(#k)"/>
    <path d="M231.24 12.8v4.66h-1.13V12.8h1.13Z" fill="url(#l)"/>
    <path d="M242.02 13.71v-.9h-3.6v.9h1.24v3.75h1.13V13.7h1.23Z" fill="url(#m)"/>
    <path d="M250.34 12.8v4.66h-1.13V12.8h1.13Z" fill="url(#n)"/>
    <path fill-rule="evenodd" clip-rule="evenodd" d="M258.77 17.2c.37.2.77.3 1.2.3.45 0 .84-.1 1.2-.3.37-.2.66-.49.87-.85.21-.37.32-.78.32-1.23 0-.46-.11-.87-.32-1.23a2.2 2.2 0 0 0-.86-.85 2.4 2.4 0 0 0-1.2-.3 2.31 2.31 0 0 0-2.39 2.38 2.31 2.31 0 0 0 1.18 2.08Zm2.1-1.1c-.23.25-.52.37-.9.37-.37 0-.67-.12-.9-.37a1.43 1.43 0 0 1-.32-.98c0-.42.1-.75.33-.99s.53-.36.9-.36.67.12.89.37c.22.24.33.57.33.98 0 .4-.1.73-.33.98Z" fill="url(#o)"/>
    <path d="M273.76 17.46h-1.13l-1.9-2.87v2.87h-1.13V12.8h1.14l1.9 2.88V12.8h1.12v4.65Z" fill="url(#p)"/>
    <path d="m140.86 231.82.18-.14a4.11 4.11 0 0 0 1.69-1.63c.17-.25.25-.5.25-.74a.65.65 0 0 0-.12-.42c-.09-.1-.21-.15-.38-.15s-.3.06-.4.19c-.09.12-.14.3-.14.53h-1.09c.01-.38.09-.69.24-.94s.35-.44.6-.56c.25-.12.53-.18.84-.18.52 0 .92.14 1.18.4.27.28.4.63.4 1.06 0 .47-.16.91-.48 1.32-.32.4-.73.8-1.23 1.18h1.79v.92h-3.33v-.84Z" fill="url(#q)"/>
    <path fill-rule="evenodd" clip-rule="evenodd" d="M151.3 230.24c0-.76.15-1.36.44-1.8.3-.43.77-.65 1.43-.65.65 0 1.12.22 1.41.66.3.43.44 1.03.44 1.79a3.2 3.2 0 0 1-.44 1.8c-.29.45-.76.66-1.42.66-.65 0-1.12-.21-1.42-.65a3.24 3.24 0 0 1-.44-1.81Zm2.61 0c0-.45-.04-.79-.14-1.03s-.3-.36-.6-.36-.51.12-.6.36a4.32 4.32 0 0 0-.1 1.78c.03.2.1.35.21.48.11.12.27.17.48.17.22 0 .38-.05.48-.17a.96.96 0 0 0 .22-.48c.03-.2.05-.45.05-.75Z" fill="url(#r)"/>
    <path d="M162.4 231.65c.02 0-.05.05-.2.17v.84h3.33v-.92h-1.8c.5-.39.92-.78 1.24-1.18.32-.4.48-.85.48-1.32 0-.43-.13-.78-.4-1.05-.26-.27-.66-.4-1.18-.4-.3 0-.59.05-.84.17-.25.12-.45.3-.6.56a1.9 1.9 0 0 0-.24.94h1.1c0-.23.04-.4.13-.53.1-.13.23-.2.4-.2s.3.06.38.16c.08.1.12.24.12.42 0 .24-.08.49-.26.74-.17.25-.38.5-.63.72-.25.23-.59.52-1.02.88Z" fill="url(#s)"/>
    <path d="m172.6 231.82.21-.17c.43-.36.77-.65 1.02-.88.25-.23.46-.47.63-.72.18-.25.26-.5.26-.74a.65.65 0 0 0-.12-.42c-.09-.1-.21-.15-.38-.15s-.3.06-.4.19c-.09.12-.14.3-.14.53h-1.09c.01-.38.09-.69.24-.94.16-.25.36-.44.6-.56.25-.12.53-.18.84-.18.52 0 .92.14 1.18.4.27.28.4.63.4 1.06 0 .47-.16.91-.48 1.32-.32.4-.73.8-1.23 1.18h1.79v.92h-3.33v-.84Z" fill="url(#t)"/>
    <path d="M194.03 230.87v-.94h-2.91v.94h2.9Z" fill="url(#u)"/>
    <path d="m209.6 231.75.04-.03.08-.07c.43-.36.77-.65 1.02-.88.25-.23.46-.47.63-.72.17-.25.26-.5.26-.74a.64.64 0 0 0-.13-.42c-.08-.1-.2-.15-.37-.15-.17 0-.3.06-.4.19-.1.12-.14.3-.14.53h-1.1c.02-.38.1-.69.25-.94s.35-.44.6-.56c.25-.12.53-.18.83-.18.53 0 .92.14 1.19.4.27.28.4.63.4 1.06 0 .47-.16.91-.48 1.32-.32.4-.74.8-1.23 1.18h1.78v.92h-3.32v-.84l.09-.07Z" fill="url(#v)"/>
    <path fill-rule="evenodd" clip-rule="evenodd" d="M220.39 228.44c-.3.44-.44 1.04-.44 1.8 0 .77.15 1.37.44 1.8.3.45.77.66 1.42.66.66 0 1.13-.21 1.42-.65.3-.44.44-1.04.44-1.81 0-.76-.14-1.36-.44-1.8-.3-.43-.76-.65-1.42-.65-.65 0-1.12.22-1.42.66Zm2.03.77a4.41 4.41 0 0 1 .1 1.78c-.05.2-.12.35-.23.48-.1.12-.27.17-.48.17-.21 0-.37-.05-.48-.17a.99.99 0 0 1-.21-.48 4.43 4.43 0 0 1 .09-1.78c.1-.24.3-.36.6-.36s.5.12.6.36Z" fill="url(#w)"/>
    <path d="m230.85 231.82.11-.1.1-.07c.43-.36.77-.65 1.01-.88.26-.23.47-.47.64-.72.17-.25.26-.5.26-.74a.65.65 0 0 0-.13-.42c-.08-.1-.2-.15-.37-.15-.17 0-.3.06-.4.19-.1.12-.14.3-.14.53h-1.1c.02-.38.1-.69.25-.94s.35-.44.6-.56c.25-.12.53-.18.83-.18.53 0 .92.14 1.19.4.27.28.4.63.4 1.06 0 .47-.16.91-.48 1.32-.33.4-.74.8-1.23 1.18h1.78v.92h-3.32v-.84Z" fill="url(#x)"/>
    <path d="M242.63 229.79v-.91h2.06v-1h-3.09v2.88h1.1a.5.5 0 0 1 .19-.28c.1-.08.22-.11.37-.11.2 0 .36.05.46.17.1.11.16.28.16.5 0 .22-.05.4-.15.53-.1.13-.26.2-.47.2a.6.6 0 0 1-.41-.14.6.6 0 0 1-.2-.34h-1.1c.01.28.09.53.23.75.14.21.34.38.6.5.26.12.57.18.92.18.53 0 .94-.15 1.23-.45.3-.3.44-.71.44-1.23 0-.28-.05-.53-.15-.77a1.32 1.32 0 0 0-1.3-.81c-.19 0-.36.03-.52.1a.96.96 0 0 0-.37.23Z" fill="url(#y)"/>
    <path fill-rule="evenodd" clip-rule="evenodd" d="M192.76 93.63a28.7 28.7 0 0 0-.02 57.4 28.7 28.7 0 0 0 .02-57.4Zm-27.6 28.7a27.58 27.58 0 1 1 55.16 0 27.58 27.58 0 1 1-55.16 0Z" fill="url(#z)"/>
    <path fill-rule="evenodd" clip-rule="evenodd" d="M103.42 14.14H32.8a8.83 8.83 0 0 0-8.83 8.84v1.1h-1.1a8.83 8.83 0 0 0-8.83 8.83l-.07 178.84a8.82 8.82 0 0 0 8.82 8.83h1.1v1.1a8.82 8.82 0 0 0 8.83 8.84h99.3v-1.1h-99.3a7.72 7.72 0 0 1-7.72-7.73v-1.1h335.4v1.1a7.73 7.73 0 0 1-7.73 7.72h-98.74v1.1h98.74a8.83 8.83 0 0 0 8.83-8.82v-1.1h1.1a8.83 8.83 0 0 0 8.83-8.84l.07-178.84a8.83 8.83 0 0 0-8.82-8.83h-1.1v-1.1a8.82 8.82 0 0 0-8.83-8.84H282.7v1.1h70.06a7.72 7.72 0 0 1 7.72 7.74v1.1H25.08v-1.1a7.73 7.73 0 0 1 7.73-7.73h70.6v-1.1Zm54.42 11.04h30.97a14.1 14.1 0 0 0-4.19 3.89c-2.87-2.7-5.94-4.02-8.89-3.5-2.95.52-5.38 2.8-7.17 6.33-3.3-2.16-6.55-2.92-9.36-1.9-2.82 1.03-4.82 3.7-5.97 7.48-3.62-1.55-6.96-1.74-9.55-.24-2.6 1.5-4.1 4.48-4.57 8.4-3.85-.9-7.16-.5-9.45 1.43-2.3 1.92-3.27 5.12-3.05 9.06-3.94-.22-7.14.75-9.06 3.05-1.93 2.29-2.33 5.6-1.43 9.45-3.92.47-6.9 1.98-8.4 4.57-1.5 2.6-1.31 5.93.24 9.56-3.78 1.15-6.45 3.15-7.47 5.97-1.03 2.81-.27 6.06 1.89 9.37-3.52 1.78-5.8 4.22-6.33 7.17-.52 2.95.8 6.02 3.49 8.9-3.16 2.37-4.99 5.16-4.99 8.16s1.83 5.8 4.98 8.16c-2.7 2.88-4.01 5.95-3.5 8.9.53 2.95 2.8 5.39 6.33 7.17-2.16 3.3-2.92 6.56-1.9 9.37 1.03 2.82 3.7 4.82 7.47 5.97-1.55 3.63-1.74 6.96-.24 9.56 1.5 2.59 4.47 4.1 8.4 4.57-.9 3.84-.51 7.16 1.41 9.45 1.92 2.3 5.12 3.27 9.06 3.05-.22 3.94.75 7.14 3.04 9.06 2.3 1.93 5.6 2.33 9.45 1.43.47 3.92 1.98 6.9 4.57 8.4 2.59 1.5 5.92 1.31 9.55-.24 1.14 3.78 3.14 6.45 5.96 7.47 2.81 1.03 6.06.27 9.37-1.89 1.78 3.52 4.21 5.8 7.16 6.33 2.95.52 6.02-.8 8.9-3.5a14.08 14.08 0 0 0 4.18 3.89h-30.97a103.2 103.2 0 0 1-68.18-97.15 103.3 103.3 0 0 1 68.25-97.15Zm-3.13 0h-4.53c-.06.67-.12 1.33-.2 2 1.56-.7 3.13-1.37 4.73-2Zm-5.9 2.53-.21.1c-1.28-.85-2.55-1.72-3.8-2.63h4.28c-.08.85-.17 1.69-.27 2.53Zm-1.38.65c-1.89.92-3.75 1.9-5.57 2.92.04-2.03.03-4.06-.04-6.1h1.11c1.48 1.1 2.98 2.16 4.5 3.18Zm-6.7 3.55-.2.12c-2.46-1.34-4.9-2.78-7.28-4.32-.12-.84-.25-1.69-.39-2.53h7.86c.07 2.26.08 4.5.02 6.73Zm-1.3.77c-1.8 1.08-3.58 2.21-5.31 3.4-.15-2.31-.38-4.62-.67-6.94 1.96 1.25 3.96 2.43 5.98 3.54Zm-6.37 4.12-.18.13a109.74 109.74 0 0 1-7.65-3.67c-.27-1.19-.57-2.37-.88-3.56l-1.21-4.52h4.45l1.6 1.13c1 .7 2.02 1.38 3.04 2.05.39 2.82.66 5.64.83 8.44Zm-1.23.88a105.1 105.1 0 0 0-5 3.84c-.35-2.28-.78-4.57-1.28-6.85 2.07 1.07 4.17 2.08 6.28 3Zm-6 4.67-.16.13a109.9 109.9 0 0 1-7.94-3c-.38-1.15-.78-2.3-1.2-3.46l-2.95-8.13 7.49 4.33c1.06.6 2.13 1.2 3.2 1.78.63 2.77 1.16 5.56 1.57 8.35Zm-1.14.97c-1.59 1.37-3.14 2.8-4.65 4.27-.55-2.25-1.17-4.5-1.87-6.72 2.16.89 4.33 1.7 6.52 2.45Zm-5.57 5.17-.15.15c-2.73-.66-5.46-1.42-8.17-2.3-.48-1.11-.98-2.23-1.5-3.34l-3.64-7.84 7.83 3.65c1.11.52 2.23 1.02 3.35 1.5.87 2.71 1.63 5.44 2.28 8.18Zm-1.05 1.07a105.4 105.4 0 0 0-4.27 4.65c-.74-2.19-1.56-4.37-2.44-6.53 2.22.7 4.46 1.32 6.71 1.88Zm-5.17 5.72-.07.07c-2.78-.4-5.57-.93-8.34-1.56-.58-1.08-1.17-2.15-1.78-3.21l-4.32-7.5 8.12 2.97c1.16.41 2.31.81 3.47 1.2 1.1 2.62 2.1 5.27 2.99 7.94l-.08.09Zm-.89 1.07a104.5 104.5 0 0 0-3.85 5c-.93-2.12-1.93-4.21-3-6.28 2.28.5 4.56.92 6.85 1.28Zm-4.6 6.05-.12.18c-2.8-.17-5.62-.45-8.44-.83a109.1 109.1 0 0 0-2.05-3.04l-4.96-7.09 8.35 2.24c1.19.31 2.37.61 3.56.89 1.33 2.51 2.55 5.07 3.67 7.65Zm-.85 1.24a104.4 104.4 0 0 0-3.4 5.31 110.63 110.63 0 0 0-3.53-5.99c2.31.3 4.62.53 6.93.68Zm-4.05 6.42-.11.2c-2.8.08-5.63.05-8.47-.1-.75-.95-1.52-1.9-2.31-2.84l-5.55-6.63 8.51 1.5c1.2.21 2.41.4 3.62.58 1.54 2.39 2.98 4.82 4.31 7.3Zm-.75 1.32c-1.02 1.83-2 3.69-2.9 5.58-1.29-1.92-2.64-3.8-4.05-5.65 2.33.1 4.65.12 6.95.07Zm-3.46 6.74-.1.22c-2.8.32-5.6.54-8.44.64a112.2 112.2 0 0 0-2.55-2.63l-6.11-6.12 8.61.75c1.22.1 2.44.2 3.66.26 1.74 2.24 3.38 4.54 4.93 6.88Zm-.64 1.4c-.86 1.9-1.66 3.83-2.41 5.8-1.44-1.8-2.95-3.55-4.51-5.27 2.32-.11 4.63-.29 6.92-.54Zm-2.86 7-.08.23c-2.75.57-5.54 1.03-8.35 1.38-.9-.81-1.83-1.61-2.77-2.4l-6.62-5.56h8.65c1.22 0 2.44-.03 3.66-.07 1.93 2.08 3.77 4.23 5.51 6.43Zm-.51 1.45c-.7 1.97-1.32 3.97-1.9 6-1.59-1.67-3.24-3.29-4.95-4.87 2.3-.3 4.59-.68 6.85-1.13Zm-2.26 7.33-.04.14c-2.69.8-5.42 1.5-8.2 2.1a111.5 111.5 0 0 0-2.96-2.15l-7.08-4.97 8.6-.75c1.23-.1 2.45-.24 3.65-.38 2.1 1.9 4.12 3.88 6.05 5.92l-.02.1Zm-.36 1.39a103.6 103.6 0 0 0-1.36 6.14c-1.73-1.52-3.52-3-5.37-4.41 2.27-.51 4.52-1.1 6.73-1.73Zm-1.6 7.4-.01.11-.02.13a109.64 109.64 0 0 1-8 2.8 112.2 112.2 0 0 0-3.14-1.88l-7.48-4.33 8.51-1.5c1.2-.21 2.4-.45 3.6-.7 2.26 1.72 4.45 3.51 6.55 5.38Zm-.24 1.5c-.34 2.07-.61 4.15-.82 6.26a111.26 111.26 0 0 0-5.74-3.94c2.22-.7 4.4-1.48 6.56-2.32Zm-.95 7.65-.01.1c-2.52 1.27-5.1 2.43-7.73 3.5-1.09-.54-2.19-1.08-3.3-1.6l-7.83-3.66 8.35-2.23c1.18-.32 2.36-.66 3.53-1.01 2.4 1.51 4.74 3.11 7 4.79l-.01.1Zm-.11 1.39c-.16 2.09-.25 4.19-.28 6.3-1.97-1.2-4-2.34-6.07-3.42 2.16-.9 4.27-1.86 6.35-2.88Zm-7.69 3.43c2.54 1.3 5 2.69 7.4 4.17v.2c-2.4 1.48-4.86 2.87-7.4 4.17-1.13-.45-2.27-.9-3.42-1.31l-8.12-2.96 8.12-2.96c1.15-.42 2.3-.86 3.42-1.31Zm7.41 5.66c.03 2.12.12 4.23.27 6.31a111.14 111.14 0 0 0-6.34-2.88c2.07-1.08 4.1-2.23 6.07-3.43Zm.37 7.6.02.21c-2.26 1.68-4.6 3.28-7 4.8-1.17-.36-2.35-.7-3.53-1.02L70 133.07l7.84-3.65c1.1-.52 2.2-1.05 3.3-1.6a109.9 109.9 0 0 1 7.72 3.5Zm.14 1.5c.21 2.1.48 4.18.81 6.25a111 111 0 0 0-6.55-2.32c1.96-1.26 3.88-2.57 5.74-3.94Zm1.03 7.52.03.22c-2.1 1.87-4.28 3.66-6.55 5.38-1.2-.25-2.39-.49-3.6-.7l-8.5-1.5 7.48-4.33c1.06-.61 2.1-1.24 3.14-1.88 2.72.83 5.38 1.77 8 2.8Zm.27 1.49c.39 2.07.84 4.12 1.35 6.14-2.21-.64-4.46-1.22-6.72-1.72 1.84-1.43 3.63-2.9 5.37-4.42Zm1.67 7.4.06.22a110.05 110.05 0 0 1-6.05 5.92c-1.21-.14-2.42-.27-3.64-.38l-8.62-.75 7.09-4.97c1-.7 1.99-1.42 2.96-2.15 2.78.6 5.51 1.3 8.2 2.1Zm.4 1.46c.57 2.03 1.2 4.03 1.89 6-2.26-.45-4.54-.83-6.84-1.13a111.2 111.2 0 0 0 4.95-4.87Zm2.32 7.22.08.22a110 110 0 0 1-5.5 6.43c-1.23-.05-2.45-.06-3.67-.06h-8.65l6.63-5.57c.93-.78 1.86-1.59 2.76-2.4 2.82.35 5.6.81 8.35 1.38Zm.53 1.43c.75 1.97 1.55 3.9 2.4 5.8-2.28-.24-4.59-.42-6.91-.53a111 111 0 0 0 4.51-5.27Zm2.94 6.98.1.22a109.9 109.9 0 0 1-4.93 6.88c-1.22.06-2.44.15-3.66.26l-8.6.75 6.1-6.12c.87-.87 1.72-1.74 2.55-2.63 2.84.1 5.66.32 8.44.64Zm.66 1.38c.91 1.9 1.88 3.75 2.9 5.58-2.3-.05-4.62-.03-6.94.07a111.2 111.2 0 0 0 4.04-5.65Zm3.54 6.7.12.2c-1.34 2.47-2.78 4.9-4.33 7.3-1.2.16-2.4.36-3.61.57l-8.52 1.5 5.56-6.63c.79-.94 1.56-1.89 2.3-2.84 2.85-.15 5.67-.18 8.48-.1Zm.77 1.3c1.07 1.81 2.2 3.59 3.39 5.32-2.3.15-4.62.38-6.93.68 1.25-1.97 2.43-3.97 3.54-6Zm4.12 6.38.05.08.07.1a110.25 110.25 0 0 1-3.67 7.65c-1.19.28-2.37.58-3.56.9l-8.35 2.23 4.96-7.09c.7-1 1.39-2.01 2.06-3.03 2.81-.4 5.63-.67 8.44-.84Zm.87 1.23c1.23 1.7 2.51 3.38 3.84 5-2.28.36-4.57.78-6.85 1.28 1.07-2.07 2.08-4.16 3-6.28Zm4.66 6 .14.16c-.9 2.67-1.9 5.32-3 7.95-1.16.38-2.31.78-3.46 1.2l-8.13 2.95 4.33-7.49c.6-1.06 1.2-2.13 1.78-3.2 2.77-.64 5.56-1.16 8.34-1.57Zm.97 1.14c1.38 1.6 2.8 3.15 4.27 4.66-2.25.55-4.5 1.17-6.72 1.87.89-2.16 1.7-4.34 2.45-6.53Zm5.17 5.57.15.15a109.6 109.6 0 0 1-2.3 8.18c-1.12.48-2.23.98-3.34 1.5l-7.84 3.65 3.66-7.84c.51-1.11 1.01-2.23 1.5-3.35 2.7-.87 5.43-1.63 8.17-2.29Zm1.06 1.05c1.51 1.47 3.06 2.9 4.66 4.27-2.2.75-4.37 1.56-6.53 2.45.7-2.23 1.32-4.47 1.87-6.72Zm5.63 5.1.17.15c-.42 2.78-.94 5.57-1.57 8.34-1.08.58-2.15 1.17-3.2 1.78l-7.5 4.33 2.96-8.13c.42-1.15.82-2.3 1.2-3.47 2.62-1.1 5.27-2.1 7.94-3Zm1.16.97c1.62 1.33 3.3 2.61 5 3.84-2.12.93-4.21 1.94-6.28 3 .5-2.27.92-4.56 1.28-6.84Zm6.05 4.59.18.13c-.17 2.8-.45 5.62-.84 8.44-1.02.67-2.03 1.35-3.04 2.05l-1.6 1.13h-4.45l1.2-4.52c.32-1.19.62-2.37.9-3.56 2.51-1.33 5.06-2.55 7.64-3.67Zm1.24.86c1.73 1.18 3.5 2.31 5.3 3.39a110.72 110.72 0 0 0-5.98 3.54c.3-2.32.52-4.63.68-6.93Zm6.41 4.04.2.12c.06 2.23.05 4.47-.02 6.73h-7.86l.4-2.53c2.38-1.54 4.81-2.98 7.28-4.32Zm1.32.75c1.83 1.03 3.68 2 5.58 2.92a110.24 110.24 0 0 0-4.51 3.18h-1.11c.07-2.04.08-4.07.04-6.1Zm6.74 3.47.21.1c.1.84.19 1.68.26 2.53h-4.28c1.26-.9 2.53-1.78 3.8-2.63Zm1.38.64c1.56.7 3.13 1.36 4.72 1.99h-4.52c-.06-.67-.12-1.33-.2-2Zm50.96-1.9a14.1 14.1 0 0 1-4.2 3.89h30.98a103.3 103.3 0 0 0 68.25-97.15 103.2 103.2 0 0 0-68.18-97.15h-30.97c1.5.85 2.9 2.17 4.19 3.89 2.88-2.7 5.94-4.02 8.9-3.5 2.94.52 5.37 2.8 7.16 6.33 3.3-2.16 6.55-2.92 9.36-1.9 2.82 1.03 4.82 3.7 5.96 7.48 3.63-1.55 6.96-1.74 9.55-.24 2.6 1.5 4.1 4.48 4.57 8.4 3.84-.9 7.16-.5 9.45 1.43 2.3 1.92 3.26 5.12 3.04 9.06 3.94-.22 7.13.75 9.06 3.05 1.92 2.29 2.32 5.6 1.42 9.45 3.92.47 6.9 1.98 8.39 4.57 1.5 2.6 1.31 5.93-.24 9.56 3.78 1.15 6.44 3.15 7.47 5.97 1.02 2.81.26 6.06-1.9 9.37 3.52 1.78 5.8 4.22 6.32 7.17.52 2.95-.8 6.02-3.5 8.9 3.17 2.37 4.99 5.16 4.99 8.16s-1.83 5.8-4.99 8.16c2.7 2.88 4.01 5.95 3.49 8.9-.52 2.95-2.8 5.39-6.33 7.17 2.16 3.3 2.92 6.56 1.9 9.37-1.03 2.82-3.7 4.82-7.48 5.97 1.55 3.63 1.73 6.96.23 9.56-1.5 2.59-4.47 4.1-8.4 4.57.9 3.84.5 7.16-1.42 9.45-1.92 2.3-5.12 3.27-9.06 3.05.22 3.94-.75 7.14-3.05 9.06-2.29 1.93-5.6 2.33-9.45 1.43-.47 3.92-1.98 6.9-4.57 8.4-2.6 1.5-5.93 1.31-9.55-.24-1.15 3.78-3.15 6.45-5.97 7.48-2.8 1.02-6.06.26-9.36-1.9-1.79 3.52-4.22 5.8-7.17 6.33-2.95.52-6.02-.8-8.9-3.5Zm34.43 3.89h-4.52c1.6-.63 3.17-1.3 4.72-2l-.2 2Zm1.6-2.63-.23.1c-.1.84-.18 1.68-.26 2.53h4.28c-1.25-.9-2.52-1.78-3.8-2.63Zm6.73-3.46c-1.82 1.02-3.69 2-5.58 2.9a111.4 111.4 0 0 1 4.5 3.19h1.11c-.06-2.04-.07-4.07-.03-6.1Zm1.32-.76-.2.12c-.06 2.23-.06 4.47.02 6.73h7.85l-.38-2.53a109.59 109.59 0 0 0-7.29-4.32Zm6.42-4.04c-1.73 1.18-3.5 2.31-5.31 3.39a111 111 0 0 1 5.98 3.54c-.3-2.31-.52-4.63-.67-6.93Zm1.24-.86-.18.13c.17 2.8.44 5.62.83 8.44 1.02.67 2.03 1.35 3.04 2.05l1.6 1.13h4.45l-1.2-4.52c-.32-1.19-.62-2.37-.9-3.56a110.04 110.04 0 0 0-7.64-3.67Zm6.05-4.6c-1.63 1.34-3.3 2.62-5 3.85 2.11.94 4.2 1.94 6.28 3-.5-2.27-.93-4.56-1.28-6.84Zm1.16-.95-.17.14c.41 2.78.94 5.57 1.57 8.34 1.07.58 2.14 1.17 3.2 1.78l7.49 4.33-2.96-8.13c-.41-1.15-.81-2.3-1.2-3.47-2.61-1.1-5.26-2.1-7.93-3Zm5.63-5.1c-1.5 1.46-3.06 2.89-4.65 4.26 2.19.75 4.36 1.56 6.52 2.45-.7-2.23-1.32-4.47-1.87-6.71Zm.92-.9c.65 2.73 1.41 5.46 2.28 8.17 1.12.48 2.24.98 3.35 1.5l7.83 3.65-3.65-7.84c-.51-1.11-1.01-2.23-1.49-3.35a109.4 109.4 0 0 0-8.17-2.29l-.15.15Zm5.32-5.73c-1.38 1.6-2.8 3.15-4.27 4.66 2.25.55 4.48 1.17 6.71 1.87-.88-2.16-1.7-4.34-2.44-6.53Zm.83-.98c.89 2.67 1.89 5.32 2.99 7.95 1.16.38 2.31.78 3.46 1.2l8.13 2.95-4.32-7.49c-.61-1.06-1.2-2.13-1.78-3.2-2.77-.64-5.56-1.16-8.34-1.57l-.14.16Zm4.8-6.16c-1.23 1.7-2.5 3.38-3.84 5 2.28.36 4.57.78 6.85 1.28a111.57 111.57 0 0 1-3-6.28Zm.83-1.15-.08.1c1.12 2.59 2.34 5.14 3.67 7.65 1.19.28 2.37.58 3.55.9l8.35 2.23-4.95-7.09c-.7-1-1.39-2.01-2.05-3.03-2.82-.4-5.63-.67-8.44-.84l-.05.08Zm4.17-6.45c-1.08 1.8-2.2 3.58-3.39 5.31 2.3.15 4.61.38 6.93.68a110.31 110.31 0 0 1-3.54-6Zm.77-1.31-.11.2a109.8 109.8 0 0 0 4.3 7.3c1.22.16 2.42.36 3.63.57l8.51 1.5-5.55-6.63a114.8 114.8 0 0 1-2.31-2.84c-2.84-.15-5.66-.18-8.47-.1Zm3.55-6.7c-.92 1.9-1.89 3.75-2.91 5.58 2.3-.05 4.62-.03 6.94.07a111.22 111.22 0 0 1-4.03-5.65Zm.6-1.27-.05.1c1.55 2.35 3.2 4.65 4.93 6.89 1.22.06 2.44.15 3.66.26l8.6.75-6.1-6.12c-.87-.87-1.72-1.74-2.55-2.63-2.83.1-5.65.32-8.44.64l-.05.1Zm3-7.09c-.75 1.97-1.55 3.9-2.4 5.8 2.28-.24 4.59-.42 6.9-.53a110.77 110.77 0 0 1-4.5-5.27Zm.53-1.44-.08.23a109.5 109.5 0 0 0 5.5 6.43c1.22-.05 2.44-.06 3.67-.06h8.64l-6.61-5.57c-.94-.78-1.87-1.59-2.77-2.4-2.81.35-5.6.81-8.35 1.37Zm2.33-7.2c-.58 2.02-1.2 4.02-1.9 6 2.26-.46 4.55-.84 6.85-1.14-1.71-1.58-3.36-3.2-4.95-4.86Zm.4-1.48-.06.23c1.93 2.04 3.94 4.02 6.04 5.92 1.21-.14 2.43-.27 3.65-.38l8.61-.75-7.08-4.97c-1-.7-1.99-1.42-2.96-2.15-2.78.6-5.51 1.3-8.2 2.1Zm1.68-7.39c-.4 2.07-.85 4.12-1.36 6.14 2.22-.64 4.46-1.22 6.72-1.72-1.84-1.43-3.63-2.9-5.36-4.42Zm.27-1.5-.04.23c2.1 1.87 4.29 3.66 6.55 5.38 1.2-.25 2.4-.49 3.6-.7l8.51-1.5-7.48-4.33c-1.06-.61-2.11-1.24-3.15-1.88-2.71.83-5.38 1.77-7.99 2.8Zm1.03-7.52c-.2 2.1-.48 4.2-.81 6.25 2.15-.83 4.33-1.6 6.55-2.3a111.3 111.3 0 0 1-5.74-3.94Zm.14-1.5-.02.22c2.26 1.68 4.6 3.28 7 4.8 1.17-.36 2.34-.7 3.53-1.02l8.35-2.24-7.84-3.65a110.2 110.2 0 0 1-3.29-1.6 109.6 109.6 0 0 0-7.73 3.5Zm.38-7.59c-.03 2.12-.12 4.22-.28 6.31a111.1 111.1 0 0 1 6.34-2.88 110.79 110.79 0 0 1-6.06-3.43Zm0-1.28c2.4 1.47 4.87 2.86 7.4 4.16 1.13-.45 2.28-.9 3.43-1.31l8.12-2.96-8.12-2.96c-1.15-.42-2.3-.86-3.42-1.31-2.54 1.3-5 2.69-7.4 4.16v.22Zm-.27-7.81c.15 2.09.24 4.19.27 6.3 1.98-1.2 4-2.34 6.07-3.42-2.15-.9-4.27-1.86-6.34-2.88Zm-.12-1.5.02.22c2.51 1.26 5.09 2.42 7.72 3.5 1.1-.55 2.19-1.09 3.3-1.6l7.84-3.67-8.35-2.23c-1.19-.32-2.36-.66-3.53-1.01-2.4 1.51-4.74 3.11-7 4.79Zm-.93-7.53c.33 2.06.6 4.14.8 6.25 1.87-1.37 3.79-2.68 5.75-3.94-2.22-.7-4.4-1.48-6.55-2.31Zm-.25-1.5.03.23c2.62 1.03 5.28 1.97 8 2.8 1.03-.64 2.08-1.27 3.14-1.88l7.49-4.33-8.51-1.5c-1.21-.21-2.41-.45-3.6-.7-2.27 1.72-4.45 3.51-6.56 5.38Zm-1.59-7.41c.51 2.02.96 4.07 1.35 6.14 1.74-1.52 3.53-3 5.37-4.41-2.27-.51-4.5-1.1-6.72-1.73Zm-.38-1.48.06.23c2.69.8 5.42 1.5 8.2 2.1.97-.73 1.96-1.45 2.96-2.15l7.08-4.97-8.6-.75c-1.23-.1-2.44-.24-3.65-.38-2.1 1.9-4.12 3.88-6.05 5.92Zm-2.23-7.24c.69 1.97 1.32 3.97 1.89 6 1.59-1.67 3.24-3.3 4.95-4.87-2.3-.3-4.58-.68-6.84-1.13Zm-.51-1.45.08.24c2.75.56 5.53 1.02 8.34 1.37.91-.81 1.83-1.61 2.77-2.4l6.63-5.56h-8.65c-1.22 0-2.44-.03-3.66-.07a110.17 110.17 0 0 0-5.51 6.42Zm-2.86-7c.86 1.9 1.66 3.83 2.4 5.8a111.2 111.2 0 0 1 4.52-5.27c-2.32-.11-4.63-.29-6.92-.54Zm-.63-1.4.1.22c2.79.32 5.6.54 8.43.64.84-.89 1.69-1.77 2.55-2.63l6.12-6.12-8.62.75c-1.22.1-2.43.2-3.65.26a109.78 109.78 0 0 0-4.94 6.88Zm-3.46-6.74c1.02 1.83 1.99 3.69 2.9 5.58a111 111 0 0 1 4.04-5.65c-2.32.1-4.64.12-6.94.07Zm-.76-1.32.12.2c2.8.08 5.63.05 8.47-.1.75-.95 1.52-1.9 2.3-2.84l5.57-6.63-8.52 1.5c-1.2.21-2.41.4-3.62.58a109.57 109.57 0 0 0-4.32 7.29Zm-4.03-6.42c1.18 1.73 2.3 3.5 3.38 5.31 1.11-2.02 2.3-4.02 3.54-5.99-2.31.3-4.62.53-6.92.68Zm-.86-1.24.12.18c2.81-.17 5.63-.45 8.44-.83a108.3 108.3 0 0 1 2.06-3.04l4.96-7.09-8.36 2.24c-1.18.31-2.36.61-3.55.89a110.59 110.59 0 0 0-3.67 7.65Zm-4.6-6.05c1.34 1.62 2.62 3.3 3.85 5 .93-2.12 1.93-4.21 3-6.28-2.27.5-4.56.92-6.84 1.28Zm-.95-1.16.14.16c2.78-.4 5.57-.93 8.34-1.56.57-1.08 1.17-2.15 1.78-3.21l4.33-7.5-8.13 2.97c-1.15.41-2.3.81-3.46 1.2-1.11 2.62-2.1 5.27-3 7.94Zm-5.1-5.64c1.47 1.51 2.9 3.07 4.27 4.66.74-2.2 1.56-4.37 2.45-6.53-2.23.7-4.47 1.32-6.72 1.87Zm-1.05-1.06.15.15c2.74-.66 5.47-1.42 8.18-2.3.48-1.11.97-2.23 1.5-3.34l3.65-7.84-7.84 3.65a110.7 110.7 0 0 1-3.35 1.5c-.87 2.7-1.63 5.44-2.29 8.18Zm-5.56-5.17c1.59 1.37 3.14 2.8 4.64 4.26.56-2.24 1.18-4.48 1.88-6.71-2.16.89-4.33 1.7-6.52 2.45Zm-1.15-.98.17.14a110.1 110.1 0 0 0 7.94-3c.38-1.15.78-2.3 1.2-3.46l2.96-8.13-7.5 4.33c-1.06.6-2.12 1.2-3.2 1.78-.63 2.77-1.15 5.56-1.57 8.34Zm-5.99-4.66c1.7 1.23 3.37 2.51 5 3.84.35-2.28.78-4.57 1.28-6.85a111.12 111.12 0 0 1-6.28 3Zm-1.23-.88.18.13a109.8 109.8 0 0 0 7.65-3.67c.28-1.19.57-2.37.9-3.56l1.2-4.52h-4.45l-1.6 1.13c-1 .7-2.02 1.38-3.04 2.05-.39 2.82-.67 5.63-.84 8.44Zm-6.36-4.12c1.8 1.08 3.57 2.2 5.3 3.4.16-2.31.38-4.63.68-6.94a110.77 110.77 0 0 1-5.98 3.54Zm-1.31-.77.2.12c2.47-1.34 4.9-2.78 7.29-4.32.12-.84.25-1.69.39-2.53h-7.86c-.08 2.25-.08 4.5-.02 6.73Zm-6.7-3.55c1.9.92 3.75 1.89 5.58 2.91-.04-2.02-.03-4.05.04-6.09h-1.11c-1.48 1.1-2.98 2.16-4.5 3.18Zm-1.38-.65.22.1a110.4 110.4 0 0 0 3.8-2.63h-4.28l.26 2.53Zm-5.88-2.53c1.59.63 3.16 1.3 4.71 2l-.2-2h-4.51Zm-45.51 189.63c2.25 3.06 4.8 4.67 7.36 4.67 2.55 0 5.1-1.6 7.36-4.67-2.75-2.86-5.3-6.99-7.35-11.98-2.07 5-4.62 9.12-7.37 11.98Zm14.8-184.96c-2.26-3.06-4.81-4.67-7.37-4.67-2.55 0-5.1 1.6-7.36 4.67 2.75 2.86 5.3 6.99 7.36 11.98 2.06-5 4.6-9.12 7.36-11.98Zm113.4-4.67h15.7l-.32.39a24.23 24.23 0 0 0-6.24 3.41l-15.83 5.76 6.69-9.56Zm-7.8 11.14 14.58-5.3c-3.53 3.45-6.01 7.98-6.92 13.05l-1.22 1.45-15.85 4.25 9.41-13.45Zm7.06 10.18.3-.08a24.6 24.6 0 0 0 1.46 10.49l-12.3 2.17L312.8 46.5Zm-11.65 13.9 13.83-2.45c.17.4.35.79.54 1.17l-9.89 9.9-9.92.86c-.88.08-1.77.15-2.65.2.55-.69 1.11-1.37 1.68-2.05l6.4-7.64Zm6.19 8.47 8.72-8.73c1.6 2.88 3.76 5.4 6.34 7.41l-15.06 1.32Zm4.22 10.2 12.39-10.41c3.78 2.5 8.3 3.96 13.17 4l-9.15 6.4h-16.41Zm18.33 0 9.25-6.49c5.79-.44 11-2.9 14.95-6.7l6.37-.55v8.8l-8.56 4.94H329.9Zm30.57-14.85-5.19.46a24.33 24.33 0 0 0 4.14-6.3l1.05-.73v6.57Zm0-7.92-.3.2.3-.87v.67Zm-6.35 22.77 6.34-3.67v3.67h-6.34Zm-1.91 1.1h8.25V90.6l-5.39 2.51-21.93-1.92 19.07-11.02Zm5.06 13.13 3.19-1.48v1.76l-3.2-.28Zm-2 .94 5.19.45v11.43l-3.47 1.26-21.68-3.83 19.96-9.31Zm3.9 13.52 1.28-.47v.7l-1.28-.23Zm-2.08.76 3.36.59v11.9l-2.78.75-21.27-5.7 20.7-7.54Zm2.7 13.81.65-.17v.34l-.64-.17Zm-2.13.57 2.78.75v11.9l-3.36.6-20.68-7.54 21.27-5.7Zm1.5 14 1.28-.23v.7l-1.29-.47Zm-2.18.38 3.46 1.26v11.43l-5.2.45-19.94-9.31 21.68-3.83Zm.27 14.07 3.18-.27v1.76l-3.18-1.49Zm-2.2.2 5.38 2.51v10.43h-8.25l-19.06-11.02 21.93-1.92Zm-.96 14.04h6.34v3.67l-6.34-3.67Zm-2.2 0 8.54 4.94v8.8l-5.76-.5a24.18 24.18 0 0 0-16.42-7.35l-8.38-5.88h22.01Zm3.87 14.44 4.66.4v6.58l-.7-.5a24.3 24.3 0 0 0-3.96-6.48Zm4.61 8.3.05.03v.12l-.05-.15Zm-32.43-22.74 8.39 5.88a24.14 24.14 0 0 0-12.78 4.22l-12.01-10.1h16.4Zm-20.63 10.2 14.44 1.27a24.4 24.4 0 0 0-5.92 7.26l-8.52-8.53Zm-1.7-.15 9.7 9.72c-.21.43-.4.86-.58 1.3l-13.62-2.4-6.4-7.63c-.57-.68-1.13-1.36-1.68-2.05.89.05 1.77.12 2.65.2l9.92.86Zm-3.4 9.94 12.12 2.14a24.26 24.26 0 0 0-1.23 10.53l-.35-.09-10.54-12.58Zm9.92 13.56 1.36 1.62a24.26 24.26 0 0 0 7.75 13.24l-15.55-5.66-9.4-13.45 15.84 4.25Zm-5.34 10.78 17.5 6.37c1.23.77 2.52 1.44 3.88 1.99l1 1.2h-15.7l-6.68-9.56Zm23.83 9.56-.4-.48c.6.18 1.22.34 1.85.48h-1.45Zm-25.64-10.22 7.15 10.22h-10.91l-3.46-1.61-8.2-14.22 15.42 5.61Zm-8 9.46.44.76h-11.73l-3.58-7.7 14.87 6.94Zm-16.42-7.66 3.92 8.42h-7.88l-3.2-1.85-3.41-9.37c-.3-.83-.6-1.67-.88-2.5.81.35 1.62.71 2.42 1.09l9.03 4.2Zm-6.58 8.18.4.24h-.32l-.08-.24Zm-1.49-.86.4 1.1h-9.4l-1.28-4.8-.66-2.58c.78.42 1.55.86 2.32 1.3l8.62 4.98Zm-16.83.88.31.22h-2.23c-.1-.57-.18-1.15-.27-1.72.74.49 1.47.99 2.2 1.5ZM131.75 25.18h-2.24l.32.22c.72.51 1.45 1 2.19 1.5l-.28-1.72Zm-9.75 0h-9.4l.4 1.1 8.62 4.98c.77.44 1.54.88 2.31 1.3-.2-.86-.42-1.72-.65-2.57l-1.28-4.8Zm-10.58 0h-.32l.41.24-.09-.24Zm-2.53 0h-7.88l3.92 8.42 9.03 4.21c.8.38 1.6.74 2.42 1.1l-.88-2.51-3.4-9.37-3.2-1.85Zm-9.1 0H88.07l.44.76 14.87 6.94-3.59-7.7Zm-15.52 0H73.36L80.5 35.4l15.42 5.61-8.2-14.22-3.45-1.6Zm-12.26 0h-15.7l.32.39a24.2 24.2 0 0 1 6.25 3.41l15.82 5.76L72 25.18Zm-6.78 5.84c3.53 3.45 6 7.98 6.9 13.05l1.23 1.45 15.84 4.25-9.4-13.45-14.57-5.3Zm7.2 15.4a24.73 24.73 0 0 1-1.46 10.49l12.3 2.17L72.73 46.5l-.3-.08Zm-1.88 11.53 13.83 2.44 6.4 7.64 1.68 2.05c-.89-.05-1.77-.12-2.65-.2l-9.92-.86-9.88-9.9c.19-.38.37-.77.54-1.17Zm-1.08 2.2 8.7 8.72-15.05-1.32c2.58-2 4.75-4.53 6.35-7.4Zm-7.9 8.51a24.16 24.16 0 0 1-13.17 4l9.14 6.4h16.41l-12.38-10.4Zm70.1 150.82.28-1.72c-.74.49-1.47.99-2.2 1.5l-.3.22h2.22Zm-9.75 0 1.3-4.8.65-2.58c-.78.42-1.55.86-2.32 1.3l-8.63 4.98-.4 1.1h9.4Zm-10.57 0 .09-.24-.41.24h.32Zm-2.53 0 3.2-1.85 3.41-9.37c.3-.83.6-1.67.88-2.5-.8.35-1.61.71-2.42 1.09l-9.03 4.2-3.92 8.43h7.88Zm-9.1 0 3.59-7.7-14.88 6.94-.43.76h11.72Zm-15.52 0 3.45-1.61 8.21-14.22-15.42 5.61-7.15 10.22H84.2Zm-12.26 0 6.7-9.56-17.51 6.37a24.31 24.31 0 0 1-3.89 1.99l-1 1.2h15.7Zm-17.14 0h-1.45c.63-.14 1.24-.3 1.85-.48l-.4.48Zm9.39-5.48 15.55-5.66 9.41-13.45-15.85 4.25-1.36 1.62A24.28 24.28 0 0 1 64.19 214ZM25.07 55.63a24.28 24.28 0 0 0 21.3 16.95l9.25 6.48H33.61l-8.55-4.93v-8.8l6.37.56c-.4-.4-.8-.8-1.18-1.21l-5.18-.46v-6.57l1.05.73c-.28-.61-.53-1.24-.76-1.88l-.29-.2v-.67Zm0 19.78v3.66h6.33l-6.34-3.66Zm0 4.76-.01 10.43 5.38 2.51 21.93-1.92-19.06-11.02h-8.25Zm-.01 11.65v1.76l3.18-.28-3.18-1.48Zm0 2.87v11.43l3.45 1.26 21.68-3.83-19.95-9.31-5.18.45Zm0 12.6v.7l1.27-.23-1.28-.47Zm0 1.82-.01 11.9 2.77.75 21.27-5.7-20.68-7.54-3.36.59Zm-.01 13.4.64-.18-.64-.17v.34Zm0 1.14v11.9l3.34.6 20.7-7.54-21.27-5.7-2.77.74Zm0 13.02-.01.7 1.28-.47-1.28-.23Zm-.01 1.87v11.43l5.18.45 19.95-9.31-21.68-3.83-3.45 1.26Zm0 12.54v1.76l3.18-1.49-3.18-.27Zm0 2.98-.01 10.43h8.25l19.07-11.02-21.93-1.92-5.39 2.5Zm-.01 11.53v3.66l6.34-3.66h-6.34Zm0 4.94v8.8l5.75-.5c-.38.38-.75.78-1.1 1.2l-4.66.4v6.58l.7-.5c-.23.6-.46 1.2-.65 1.82l-.05.03v.12a24.3 24.3 0 0 1 22.18-17l8.39-5.88H33.57l-8.54 4.93Zm24.1.94c4.72.18 9.1 1.71 12.77 4.22l12.02-10.1h-16.4l-8.4 5.88Zm14.57 5.59 14.44-1.27-8.52 8.53a24.37 24.37 0 0 0-5.92-7.26Zm6.44 8.3 9.7-9.72 9.93-.86c.88-.08 1.76-.15 2.65-.2a113 113 0 0 1-1.69 2.05l-6.4 7.64-13.62 2.4c-.18-.45-.37-.88-.57-1.31Zm.97 2.36a24.26 24.26 0 0 1 1.22 10.53l.35-.09 10.55-12.58-12.12 2.14ZM253.54 26.9l.28-1.72h2.23l-.32.22c-.72.51-1.45 1-2.19 1.5Zm8.74 3.09 1.29-4.8h9.4l-.4 1.09-8.63 4.98c-.77.44-1.55.88-2.32 1.3.2-.86.43-1.72.66-2.57Zm11.77-4.57.09-.24h.32l-.41.24Zm-.59 1.61 3.2-1.85h7.89l-3.93 8.42-9.02 4.21c-.8.38-1.62.74-2.43 1.1l.88-2.51 3.41-9.37Zm8.72 5.85 3.59-7.7h11.72l-.44.76-14.87 6.94Zm15.65-6.09 3.46-1.6h10.91l-7.15 10.21-15.42 5.61 8.2-14.22Zm62.64 21.58a23.16 23.16 0 1 1-46.34 0 23.16 23.16 0 1 1 46.34 0Zm0-7.26c-.26-.87-.58-1.7-.94-2.52.35-.4.67-.82.95-1.25v3.77Zm0-6.12c-.35.86-.83 1.7-1.46 2.5-.47-.95-1-1.86-1.6-2.73 1.08-.08 2.1 0 3.05.23Zm-3.8-1.27a24.38 24.38 0 0 0-7.6-6.6l1.2-1.2c.24-.24.47-.49.69-.74h8.29c.5.74.92 1.54 1.23 2.37v6.3a11.4 11.4 0 0 0-3.8-.13Zm-7.22-8.54-1.4 1.4a24.15 24.15 0 0 0-3.48-1.4h4.88Zm12.06 194.3h1.1a7.73 7.73 0 0 0 7.73-7.73l.07-178.84a7.72 7.72 0 0 0-7.72-7.73h-1.1l-.08 194.3Zm-1.1-16.48v4.32c-.32-.5-.69-.97-1.1-1.43l-.02.02c.44-.94.81-1.9 1.12-2.9Zm-4.19 7.88c1.48.24 2.89.2 4.2-.07l-.01 6.3a11.2 11.2 0 0 1-1.24 2.37h-8.28c-.22-.25-.45-.5-.7-.74l-1.54-1.56a24.4 24.4 0 0 0 7.57-6.3Zm-8.6 6.83 1.76 1.77h-6.97c1.82-.4 3.56-1 5.2-1.77Zm12.78-8.04c-1.06.25-2.2.33-3.41.2.66-.92 1.26-1.9 1.78-2.9.72.85 1.25 1.76 1.63 2.7Zm.02-13.93a23.17 23.17 0 1 0-46.34 0 23.17 23.17 0 1 0 46.34 0ZM43 219.48a24.3 24.3 0 0 1-18-16.48v4.31c.33-.49.7-.96 1.11-1.42l.53 1.08c-.71.85-1.25 1.76-1.63 2.7 1.07.25 2.21.33 3.42.2.24.34.5.68.76 1.01-1.48.24-2.89.2-4.19-.07v6.3c.31.83.73 1.63 1.23 2.37h8.29c.21-.25.44-.5.69-.74l1.55-1.56c.34.19.69.36 1.04.53l-1.77 1.77H43ZM23.98 25.18h-1.1a7.73 7.73 0 0 0-7.73 7.73l-.07 178.84a7.72 7.72 0 0 0 7.72 7.73h1.1l.08-194.3Zm1.1 2.37v6.3a11.4 11.4 0 0 1 3.8-.13c-.26.34-.5.68-.74 1.04-1.07-.08-2.1 0-3.05.23.35.86.83 1.7 1.45 2.5-.18.35-.36.72-.52 1.1-.35-.4-.66-.82-.94-1.24v3.76a24.35 24.35 0 0 1 15.91-15.93h-4.88l1.4 1.4c-.35.17-.7.35-1.03.54l-1.2-1.2-.68-.74h-8.29c-.5.74-.91 1.54-1.23 2.37Zm-.06 168.2a23.17 23.17 0 1 0 46.34 0 23.17 23.17 0 1 0-46.34 0Zm.05-147.38a23.17 23.17 0 1 0 46.34 0 23.17 23.17 0 1 0-46.34 0Zm251.02 150.4c.36.81.72 1.62 1.1 2.42l4.2 9.04 14.63 6.82-8.06-13.99-9.36-3.4c-.84-.31-1.67-.6-2.5-.89Zm27.8 8.91-15.18-5.52-4.98-8.63-1.3-2.32 2.58.66 9.62 2.58 9.25 13.23Zm2.2-33.1 16.1 1.4-12.37-10.38h-9.96c-.89 0-1.77.01-2.65.03.6.64 1.22 1.27 1.85 1.9l7.04 7.05ZM288.15 61.53c.88-.13 1.75-.27 2.62-.43l9.81-1.73L310.95 47l-15.6 4.18-5.71 8.16c-.51.73-1 1.46-1.5 2.2Zm15.8-24.55-9.26 13.23-9.62 2.58c-.86.23-1.71.45-2.57.66.42-.78.85-1.55 1.3-2.32l4.98-8.63 15.18-5.52Zm-22.49-2.55-4.2 9.04c-.38.8-.75 1.6-1.1 2.42l2.5-.88 9.37-3.4 8.07-14-14.64 6.82Zm6.65 148.7c.49.73.98 1.46 1.5 2.19l5.7 8.16 15.6 4.18-10.38-12.38-9.8-1.72c-.88-.16-1.75-.3-2.62-.43Zm9.14-104.1c.6-.64 1.23-1.27 1.85-1.9l7.05-7.05 16.08-1.4-12.37 10.38h-9.96c-.88 0-1.77-.01-2.65-.03Zm3.37 9.27 2.64.27 9.92.87 13.23-9.27h-16.15l-7.63 6.4c-.68.57-1.35 1.15-2.01 1.73Zm49.4-8.13h-21.69l-13.44 9.42 16.35 1.43L350 80.17Zm-20.45 11.81-16.09-1.4-8.16 5.71c-.72.5-1.44 1.03-2.15 1.55l2.6.5 9.81 1.72 13.99-8.08Zm-12.3 8.38 14.22-8.2 21.6 1.88-19.66 9.18-16.16-2.86Zm-12.4 7.2 2.3-1.36 8.62-4.98 15.9 2.8-14.64 6.84-9.62-2.58-2.55-.72Zm.86 9.83c.83.33 1.65.64 2.49.94l9.35 3.41 15.18-5.53-15.6-4.18-9.02 4.21-2.4 1.15Zm12.98-6.09 15.85 4.26 20.37-7.43-21.35-3.77-14.87 6.94Zm36.84 11.03-20.94-5.62-15.42 5.62 15.41 5.62 20.95-5.62Zm-22.8 6.12-15.18-5.53-9.36 3.4c-.83.31-1.66.62-2.48.95l2.4 1.15 9.02 4.21 15.6-4.18Zm-14.05 4.9 15.85-4.25 20.37 7.43-21.35 3.77-14.87-6.94Zm-13.83 3.75c.84-.25 1.7-.49 2.55-.72l9.62-2.58 14.64 6.83-15.9 2.8-8.63-4.97c-.77-.45-1.53-.9-2.28-1.36Zm-1.72 9.72c.71.53 1.43 1.04 2.16 1.55l8.15 5.72 16.09-1.41-13.98-8.08-9.81 1.73c-.87.15-1.74.32-2.6.49Zm14.1-2.52 14.21 8.2 21.6-1.88-19.64-9.18-16.16 2.86Zm32.73 20.19-18.77-10.85-16.34 1.43 13.43 9.42h21.68Zm-23.6 0-13.22-9.27-9.93.87-2.64.27 2.02 1.73 7.62 6.4h16.15Zm-218.12 36.7 1.09-2.42-2.5.88-9.37 3.41-8.07 14 14.63-6.83 4.22-9.03Zm-11.53.97-15.18 5.52 9.27-13.23 9.62-2.58c.85-.23 1.71-.45 2.57-.66-.42.78-.86 1.55-1.3 2.32l-4.98 8.63Zm-33.46-26.17 16.1-1.41 7.04-7.05 1.85-1.9c-.88-.02-1.77-.03-2.65-.03h-9.96l-12.38 10.39ZM94.77 61.1c.87.16 1.75.3 2.62.43l-1.5-2.19-5.7-8.16L74.59 47l10.37 12.38 9.81 1.72Zm-3.9-10.89L81.6 36.98l15.17 5.52 4.97 8.63c.45.77.88 1.54 1.3 2.32-.86-.21-1.71-.43-2.57-.66l-9.62-2.58Zm17.44-6.74-4.21-9.04-14.63-6.82 8.06 14 9.36 3.4c.83.3 1.67.6 2.5.88-.35-.81-.71-1.62-1.08-2.42ZM95.84 185.32l1.5-2.2c-.88.14-1.75.28-2.62.44l-9.81 1.72-10.39 12.38 15.6-4.18 5.72-8.16Zm-9.42-108.2 1.85 1.9c-.88.03-1.77.04-2.65.04h-9.96L63.3 68.67l16.09 1.41 7.04 7.05Zm-4.17 11.45c.89-.08 1.77-.17 2.64-.27l-2-1.73-7.63-6.4H59.12l13.22 9.27 9.92-.87Zm-25.06-8.4H35.52l18.77 10.85 16.34-1.43-13.43-9.42Zm14.84 10.4-16.09 1.41 13.98 8.08 9.81-1.73c.87-.15 1.74-.32 2.6-.49a110.8 110.8 0 0 0-2.15-1.55l-8.15-5.72Zm-18 1.58 14.2 8.21-16.16 2.86-19.64-9.18 21.6-1.89Zm24.3 14.05 2.3 1.36c-.86.25-1.7.49-2.56.72l-9.62 2.58-14.64-6.83 15.9-2.8 8.63 4.97Zm-1.06 12.13c.84-.3 1.67-.61 2.49-.94l-2.4-1.15-9.02-4.21-15.6 4.18 15.17 5.53 9.36-3.4Zm-26.33-2.77 15.85-4.26-14.87-6.94-21.35 3.77 20.37 7.43Zm-.05 1.15-20.95 5.62 20.94 5.62 15.42-5.62-15.41-5.62Zm17.02 6.2-15.17 5.54 15.6 4.18 9.02-4.21 2.4-1.15c-.83-.33-1.66-.64-2.49-.94l-9.36-3.41Zm-16.98 6.2 15.85 4.25-14.87 6.94-21.35-3.77 20.37-7.43Zm27.13 7.27 2.55.72c-.75.46-1.51.91-2.28 1.36l-8.63 4.98-15.9-2.8 14.64-6.84 9.62 2.58Zm2.1 11.99c.73-.5 1.45-1.03 2.16-1.55l-2.6-.5-9.82-1.72-13.98 8.08 16.08 1.4 8.16-5.71Zm-26.16 4.14 14.21-8.21-16.15-2.86-19.65 9.18 21.6 1.89Zm.25 1.13-18.78 10.85h21.68l13.45-9.42-16.35-1.43Zm18.06 1.58-13.23 9.27h16.15l7.63-6.4c.68-.57 1.35-1.15 2-1.73-.87-.1-1.75-.2-2.63-.27l-9.92-.87Zm134.8-98.02c-.01 9.02-1.72 17.13-4.44 22.95a23.62 23.62 0 0 1-3.46 5.53 23.6 23.6 0 0 1-1.36-6.38c-.56-6.4.6-14.6 3.7-23.08a66.9 66.9 0 0 1 4.65-10.14c.58 3.46.9 7.2.9 11.12Zm-13.75-13.88a45.12 45.12 0 0 1 4.92-9.46c.82-1.17 1.65-2.2 2.5-3.09a27.58 27.58 0 0 1 1.91 3.48 45.1 45.1 0 0 1 3.2 10.17 67.16 67.16 0 0 0-5.38 11.42 68.41 68.41 0 0 0-2.8 9.93 68.61 68.61 0 0 0-1.04-10.27 67.26 67.26 0 0 0-3.31-12.18Zm-.6 1.59a66.91 66.91 0 0 1 2.82 10.79c1.56 8.88 1.29 17.17-.38 23.37a23.6 23.6 0 0 1-2.45 6.04 23.61 23.61 0 0 1-2.45-6.04c-1.66-6.2-1.93-14.5-.36-23.38a66.8 66.8 0 0 1 2.82-10.78Zm-.59-1.59a45.03 45.03 0 0 0-4.92-9.46 27.42 27.42 0 0 0-2.49-3.09 27.33 27.33 0 0 0-1.91 3.48 45.09 45.09 0 0 0-3.22 10.17 67.14 67.14 0 0 1 5.38 11.42 68.5 68.5 0 0 1 2.8 9.93c.08-3.27.42-6.73 1.04-10.27.78-4.38 1.92-8.49 3.32-12.18Zm-.09 42.8c-1.4-2.17-2.49-5-3.22-8.3a25.72 25.72 0 0 1-1.74 8.74c.87.84 1.76 1.5 2.67 1.93a10.4 10.4 0 0 0 2.3-2.36Zm.67.96c.55.72 1.13 1.35 1.76 1.88a6.35 6.35 0 0 1-3.52 0c.62-.53 1.21-1.16 1.76-1.88Zm2.96 1.41c-.82-.59-1.59-1.38-2.3-2.36 1.4-2.18 2.5-5.01 3.23-8.32.15 3.39.73 6.36 1.73 8.75a10.4 10.4 0 0 1-2.66 1.93Zm-.11 1.26a7.64 7.64 0 0 1-5.7 0 7.62 7.62 0 0 1-5.61 1 7.63 7.63 0 0 1-5.36 1.94 7.63 7.63 0 0 1-4.93 2.85 7.64 7.64 0 0 1-4.36 3.67 7.64 7.64 0 0 1-3.67 4.36 7.64 7.64 0 0 1-2.85 4.94 7.64 7.64 0 0 1-1.95 5.36 7.66 7.66 0 0 1-1 5.61 7.64 7.64 0 0 1 0 5.7 7.62 7.62 0 0 1 1 5.61 7.64 7.64 0 0 1 1.94 5.36 7.62 7.62 0 0 1 2.85 4.94 7.65 7.65 0 0 1 3.66 4.36 7.62 7.62 0 0 1 4.36 3.67 7.61 7.61 0 0 1 4.93 2.85 7.62 7.62 0 0 1 5.36 1.95 7.6 7.6 0 0 1 5.6.99 7.63 7.63 0 0 1 5.7 0 7.62 7.62 0 0 1 5.61-1 7.63 7.63 0 0 1 5.36-1.94 7.6 7.6 0 0 1 4.93-2.85 7.62 7.62 0 0 1 4.37-3.67 7.62 7.62 0 0 1 3.66-4.36 7.65 7.65 0 0 1 2.85-4.94 7.66 7.66 0 0 1 1.95-5.36 7.64 7.64 0 0 1 1-5.61 7.66 7.66 0 0 1 0-5.7 7.64 7.64 0 0 1-1-5.61 7.64 7.64 0 0 1-1.94-5.36 7.63 7.63 0 0 1-2.85-4.94 7.64 7.64 0 0 1-3.66-4.36 7.63 7.63 0 0 1-4.36-3.67 7.62 7.62 0 0 1-4.93-2.85 7.63 7.63 0 0 1-5.35-1.95 7.63 7.63 0 0 1-5.61-.99Zm4.67.02a6.34 6.34 0 0 1-3.46-.61c.7-.41 1.4-.93 2.06-1.54.4.8.88 1.52 1.4 2.15Zm2.23.6a6.34 6.34 0 0 0 3.3 1.2c-.4-.7-.74-1.5-1-2.36-.76.49-1.53.88-2.3 1.16Zm2-2.29c-1 .68-2 1.16-2.97 1.44a10.4 10.4 0 0 1-1.84-2.73c1.76-1.9 3.33-4.5 4.62-7.62-.44 3.35-.39 6.39.19 8.91Zm1.25.46a10.4 10.4 0 0 0 1.34 3c1-.1 2.07-.4 3.17-.9-.13-2.58.34-5.58 1.36-8.81a25.74 25.74 0 0 1-5.87 6.7Zm10.98-17.66c1.7-2.8 3.73-5.63 6.04-8.38 2.86-3.4 5.9-6.4 8.96-8.89.6-3.87.74-7.49.47-10.66a27.47 27.47 0 0 0-.62-3.92c-1.09.55-2.22 1.24-3.4 2.05a45.08 45.08 0 0 0-7.85 7.2c.05 3.95-.28 8.2-1.06 12.6a68.67 68.67 0 0 1-2.54 10Zm2.5-21.3c-.03 3.5-.36 7.25-1.04 11.1-1.57 8.88-4.66 16.58-8.35 21.83a23.63 23.63 0 0 1-4.37 4.85 23.6 23.6 0 0 1-.23-6.52c.56-6.4 3.13-14.28 7.64-22.1a66.89 66.89 0 0 1 6.35-9.16Zm1.05-2.9c3.64-3.98 7.45-6.99 11.02-8.73-1.07-3.65-2.93-6.03-5.32-6.9-2.4-.88-5.35-.25-8.52 1.86 1.6 3.63 2.6 8.38 2.82 13.77Zm-3.74-13.13a27.5 27.5 0 0 1 1.28 3.76c.83 3.07 1.3 6.66 1.4 10.57a67.2 67.2 0 0 0-7.3 10.32 68.59 68.59 0 0 0-4.48 9.3c.5-3.25.76-6.7.77-10.3 0-4.45-.41-8.7-1.15-12.58a45.13 45.13 0 0 1 6.5-8.46c1-1 2-1.87 2.98-2.6Zm-.47-1.02c-3.21 2.34-6.44 5.97-9.34 10.52-1.16-5.27-2.95-9.78-5.16-13.08 2.75-2.62 5.55-3.75 8.06-3.31 2.52.44 4.75 2.47 6.44 5.87ZM175.85 218c-2.51-.44-4.75-2.47-6.44-5.87 3.21-2.34 6.44-5.97 9.34-10.52 1.16 5.27 2.95 9.78 5.16 13.08-2.75 2.62-5.54 3.75-8.06 3.31Zm11.35-7.2c1.82-2.6 3.5-5.81 4.92-9.46a67.2 67.2 0 0 1-3.3-12.18c-.63-3.54-.97-7-1.04-10.27a68.65 68.65 0 0 1-2.8 9.93 67.22 67.22 0 0 1-5.4 11.42 45.1 45.1 0 0 0 3.21 10.17c.6 1.3 1.24 2.45 1.92 3.48.84-.9 1.67-1.92 2.49-3.1Zm11.03 0a45.1 45.1 0 0 1-4.92-9.46c1.4-3.69 2.54-7.8 3.32-12.18.62-3.54.96-7 1.04-10.27a68.52 68.52 0 0 0 2.8 9.93 67.16 67.16 0 0 0 5.38 11.42 45.2 45.2 0 0 1-3.22 10.17c-.6 1.3-1.24 2.45-1.91 3.48-.84-.9-1.68-1.92-2.5-3.09Zm.13-52.7c-1 2.39-1.6 5.37-1.74 8.75a25.7 25.7 0 0 0-3.22-8.32c.7-.98 1.47-1.77 2.3-2.36.9.44 1.8 1.09 2.66 1.93Zm-3.18 7.5a23.6 23.6 0 0 0-2.45-6.05 23.64 23.64 0 0 0-2.45 6.04c-1.67 6.2-1.94 14.5-.38 23.38a66.9 66.9 0 0 0 2.82 10.78 66.83 66.83 0 0 0 2.82-10.78c1.57-8.89 1.3-17.18-.36-23.38Zm-.69-9.9a11.8 11.8 0 0 0-1.76 1.88 11.78 11.78 0 0 0-1.76-1.88 6.34 6.34 0 0 1 3.52 0Zm-2.43 2.83c-.7-.98-1.47-1.77-2.29-2.36-.9.44-1.8 1.09-2.66 1.93 1 2.39 1.58 5.37 1.73 8.75.73-3.3 1.82-6.14 3.22-8.32Zm-5.07-3.59a6.35 6.35 0 0 0-1.78-.05c.52.63 1 1.35 1.4 2.15.67-.61 1.36-1.13 2.06-1.54a6.34 6.34 0 0 0-1.68-.56Zm-5.58-1.49c.56.2 1.08.48 1.57.84-.77.28-1.54.67-2.3 1.16-.26-.86-.6-1.65-1-2.36.6.04 1.18.16 1.73.36Zm2.54 1.69c-.97.28-1.97.76-2.97 1.44.58 2.52.63 5.56.19 8.91a25.73 25.73 0 0 1 4.62-7.62c-.52-1.1-1.14-2-1.84-2.73Zm-5.56-2.03c.56.84 1.01 1.85 1.34 3.01a25.7 25.7 0 0 0-5.87 6.71 25.74 25.74 0 0 0 1.36-8.81c1.1-.5 2.16-.8 3.17-.9Zm-15.68 29.05a68.75 68.75 0 0 0 6.04-8.38 68.4 68.4 0 0 0-2.54 10 67.21 67.21 0 0 0-1.06 12.6 45.06 45.06 0 0 1-7.86 7.2c-1.16.81-2.3 1.5-3.4 2.05a27.6 27.6 0 0 1-.6-3.92c-.28-3.17-.14-6.79.46-10.66 3.06-2.5 6.1-5.48 8.96-8.9Zm4.58 1.82a66.94 66.94 0 0 0-1.04 11.1 66.81 66.81 0 0 0 6.35-9.17c4.5-7.81 7.09-15.7 7.64-22.09a23.6 23.6 0 0 0-.23-6.52 23.61 23.61 0 0 0-4.37 4.85c-3.68 5.25-6.78 12.95-8.35 21.83Zm6.26 2.48a67.16 67.16 0 0 1-7.28 10.32c.08 3.91.56 7.5 1.39 10.57.36 1.38.8 2.63 1.28 3.76a27.5 27.5 0 0 0 2.99-2.61 45.12 45.12 0 0 0 6.5-8.46 67.08 67.08 0 0 1-1.16-12.58c0-3.6.27-7.05.77-10.3a68.6 68.6 0 0 1-4.49 9.3Zm-5.53 25.3c-1.6-3.64-2.6-8.39-2.82-13.78-3.64 3.98-7.45 6.99-11.02 8.74 1.07 3.64 2.93 6.02 5.32 6.9 2.4.87 5.35.24 8.52-1.87Zm63.44-156.48a66.95 66.95 0 0 0-7.84 7.93c-5.8 6.91-9.7 14.22-11.36 20.43-.65 2.4-.94 4.56-.9 6.46a23.63 23.63 0 0 0 5.14-4.01c4.54-4.54 8.92-11.58 12-20.06a66.85 66.85 0 0 0 2.96-10.75ZM210.37 91.8c-.83.35-1.66.6-2.46.75a6.33 6.33 0 0 0 3.05 1.76c-.28-.77-.48-1.6-.59-2.5Zm1.06-.49a25.71 25.71 0 0 0 6.94-5.59 25.7 25.7 0 0 0-2.87 8.45c-1.17.3-2.27.4-3.28.34-.4-.93-.68-2-.8-3.2Zm13.88-15.49a68.7 68.7 0 0 0 4.23-9.4 67.14 67.14 0 0 0 3.22-12.22 45.13 45.13 0 0 1 9-5.73c1.29-.6 2.53-1.07 3.7-1.43.07 1.23.04 2.55-.08 3.97a45.1 45.1 0 0 1-2.3 10.41 67.13 67.13 0 0 0-10.38 7.2 68.5 68.5 0 0 0-7.4 7.2Zm7.69-23.2c.7-5.36.57-10.2-.39-14.07 3.49-1.52 6.5-1.63 8.71-.35 2.21 1.28 3.62 3.94 4.04 7.72-3.81 1.1-8.08 3.4-12.36 6.7Zm-56.81 98.4c.5.28.97.65 1.4 1.09-.81.14-1.64.4-2.47.75-.11-.9-.3-1.74-.58-2.51.59.15 1.14.37 1.65.66Zm-2.93-.87c.42.93.69 2 .8 3.2a25.7 25.7 0 0 0-6.94 5.59c1.56-3 2.54-5.88 2.87-8.45 1.17-.3 2.27-.4 3.27-.34Zm-20.47 25.89a68.55 68.55 0 0 0 7.4-7.2c-1.58 2.87-3.01 6.03-4.24 9.4a67.22 67.22 0 0 0-3.22 12.22 45.14 45.14 0 0 1-9 5.73c-1.29.6-2.52 1.07-3.7 1.43-.07-1.23-.04-2.55.08-3.97.28-3.17 1.05-6.7 2.3-10.41a67.1 67.1 0 0 0 10.38-7.2Zm4.2 2.59a66.84 66.84 0 0 0-2.96 10.75 66.92 66.92 0 0 0 7.84-7.93c5.8-6.91 9.7-14.22 11.36-20.43.65-2.4.94-4.56.9-6.46a23.63 23.63 0 0 0-5.14 4.01c-4.54 4.54-8.92 11.58-12 20.06Zm-16.86 20.1c3.81-1.1 8.08-3.4 12.36-6.69-.7 5.36-.57 10.2.39 14.06-3.48 1.53-6.5 1.64-8.71.36-2.21-1.28-3.62-3.94-4.04-7.72Zm38.25-11.27c0 3.91.32 7.66.9 11.12a66.94 66.94 0 0 0 4.66-10.14c3.08-8.47 4.25-16.68 3.7-23.08a23.63 23.63 0 0 0-1.37-6.38 23.65 23.65 0 0 0-3.46 5.53c-2.72 5.82-4.43 13.93-4.43 22.95Zm34.47-91.82a6.34 6.34 0 0 0 2.69 2.26c-.14-.81-.19-1.67-.14-2.57-.88.2-1.74.3-2.56.3Zm3.67-.61c-.09 1.2 0 2.3.24 3.28.98.25 2.08.33 3.28.24a25.7 25.7 0 0 1 4.3-7.82 25.7 25.7 0 0 1-7.82 4.3Zm16.36-12.85c2.56-2.04 5.42-4 8.53-5.8a67.1 67.1 0 0 1 11.46-5.29 45.15 45.15 0 0 0 4.08-9.85c.37-1.38.63-2.68.77-3.9-1.22.14-2.52.4-3.9.77a45.1 45.1 0 0 0-9.84 4.08 67.22 67.22 0 0 1-5.3 11.46 68.63 68.63 0 0 1-5.8 8.53Zm9.62-19.16a66.91 66.91 0 0 1-4.77 10.08c-4.5 7.81-10.04 13.98-15.3 17.66a23.6 23.6 0 0 1-5.77 3.06c.3-1.87.97-3.96 2.01-6.2 2.72-5.83 7.83-12.35 14.74-18.15 3-2.52 6.07-4.67 9.1-6.45Zm1.98-2.36c4.79-2.5 9.4-4.02 13.34-4.44.24-3.8-.68-6.67-2.64-8.3-1.96-1.65-4.94-2.07-8.64-1.17.27 3.96-.43 8.76-2.06 13.91Zm-73.02 87.04c.45.38.85.82 1.19 1.33-.82 0-1.68.1-2.56.3.04-.9 0-1.76-.14-2.57.56.25 1.06.56 1.51.94Zm-2.73-1.35c.25.98.33 2.08.24 3.28a25.7 25.7 0 0 0-7.82 4.3 25.75 25.75 0 0 0 4.3-7.82c1.2-.09 2.3 0 3.28.24Zm-24.65 21.93a68.5 68.5 0 0 0 8.53-5.8c-2.05 2.55-4 5.42-5.8 8.53-2.23 3.85-4 7.74-5.3 11.46a45.06 45.06 0 0 1-9.85 4.09c-1.37.36-2.67.62-3.89.76.14-1.22.4-2.52.77-3.9.82-3.07 2.2-6.41 4.08-9.85 3.72-1.3 7.6-3.06 11.46-5.29Zm8 6.91a66.9 66.9 0 0 1-9.1 6.45 66.75 66.75 0 0 1 4.78-10.08c4.51-7.81 10.05-13.98 15.3-17.66a23.65 23.65 0 0 1 5.77-3.06c-.3 1.87-.96 3.96-2.01 6.2-2.72 5.83-7.83 12.35-14.74 18.15Zm-24.41 13.25c3.95-.42 8.55-1.95 13.34-4.44-1.63 5.15-2.33 9.95-2.06 13.91-3.7.9-6.69.48-8.64-1.16-1.96-1.64-2.88-4.52-2.64-8.31Zm39.71-44.82c.38.45.7.95.94 1.5-.8-.13-1.67-.18-2.57-.13.2-.88.3-1.74.3-2.56.51.34.95.74 1.33 1.19Zm-2.45-1.8c.07 1-.04 2.1-.34 3.27a25.7 25.7 0 0 0-8.44 2.87 25.7 25.7 0 0 0 5.59-6.95c1.2.12 2.27.39 3.2.8Zm-28.08 17.31a68.45 68.45 0 0 0 9.4-4.24 68.46 68.46 0 0 0-7.2 7.4 67.12 67.12 0 0 0-7.2 10.37 45.1 45.1 0 0 1-10.4 2.31c-1.42.12-2.74.15-3.97.08.36-1.18.83-2.42 1.43-3.7a45.15 45.15 0 0 1 5.73-9c3.9-.63 8.02-1.7 12.2-3.22Zm6.68 8.2a66.76 66.76 0 0 1-10.08 4.77 66.86 66.86 0 0 1 6.45-9.1c5.8-6.91 12.32-12.03 18.14-14.74a23.62 23.62 0 0 1 6.2-2 23.62 23.62 0 0 1-3.05 5.76c-3.68 5.26-9.85 10.8-17.66 15.3Zm-26.34 8.8c3.96.27 8.76-.43 13.9-2.06-2.5 4.8-4.02 9.4-4.44 13.35-3.8.24-6.66-.69-8.3-2.65-1.64-1.95-2.06-4.94-1.16-8.64Zm46.88-37.24c.3.5.52 1.06.67 1.65-.78-.28-1.61-.47-2.5-.59.34-.83.6-1.65.74-2.46.43.42.8.89 1.1 1.4Zm-2.1-2.2c-.1 1-.4 2.06-.9 3.16-2.58-.12-5.58.35-8.8 1.37a25.72 25.72 0 0 0 6.7-5.88c1.16.33 2.17.78 3 1.34Zm-30.66 12.17c3.54-.62 6.9-1.49 10-2.54a68.5 68.5 0 0 0-8.37 6.04c-3.4 2.86-6.4 5.9-8.89 8.96-3.87.6-7.48.74-10.65.47a27.57 27.57 0 0 1-3.92-.62c.55-1.1 1.24-2.23 2.05-3.4a45.02 45.02 0 0 1 7.2-7.86c3.95.06 8.2-.28 12.58-1.05Zm5.16 9.23a66.77 66.77 0 0 1-10.75 2.95 66.83 66.83 0 0 1 7.93-7.84c6.9-5.8 14.22-9.7 20.42-11.36a23.6 23.6 0 0 1 6.46-.9 23.64 23.64 0 0 1-4.01 5.15c-4.54 4.54-11.58 8.92-20.05 12ZM109 162.2c3.86.96 8.7 1.1 14.06.39-3.3 4.28-5.6 8.55-6.7 12.37-3.77-.42-6.44-1.83-7.72-4.05-1.27-2.2-1.16-5.22.36-8.7Zm52.64-28.53c.2.55.32 1.13.36 1.74-.7-.4-1.5-.75-2.36-1.01.49-.76.88-1.53 1.16-2.3.36.5.64 1.01.84 1.57Zm-1.69-2.54a10.4 10.4 0 0 1-1.44 2.97 25.68 25.68 0 0 0-8.9-.2 25.69 25.69 0 0 0 7.62-4.62c1.08.53 2 1.15 2.72 1.85Zm-32.3 6.66c3.59 0 7.04-.26 10.28-.76a68.47 68.47 0 0 0-9.29 4.5 67.11 67.11 0 0 0-10.3 7.28c-3.92-.09-7.5-.57-10.58-1.4-1.37-.37-2.62-.8-3.75-1.28.73-.99 1.6-1.99 2.61-3a45.14 45.14 0 0 1 8.46-6.49c3.87.75 8.12 1.16 12.57 1.16Zm3.47 10c-3.85.67-7.59 1-11.1 1.03a66.81 66.81 0 0 1 9.17-6.34c7.81-4.51 15.69-7.09 22.08-7.65 2.47-.21 4.66-.13 6.52.24a23.63 23.63 0 0 1-4.84 4.37c-5.26 3.69-12.95 6.78-21.83 8.34Zm-27.76-.74c3.63 1.6 8.38 2.6 13.78 2.82-3.99 3.65-7 7.46-8.74 11.02-3.65-1.07-6.03-2.92-6.9-5.32-.87-2.4-.24-5.36 1.86-8.52Zm56.79-18.96c.1.58.12 1.17.05 1.78-.63-.53-1.35-1-2.15-1.4.61-.67 1.13-1.36 1.54-2.07.27.55.46 1.11.56 1.7Zm-1.22-2.79c-.44.91-1.1 1.8-1.93 2.67-2.39-1-5.37-1.59-8.75-1.73a25.7 25.7 0 0 0 8.31-3.23c.98.7 1.78 1.47 2.37 2.29Zm-32.97.95c3.53.62 6.98.96 10.26 1.04a68.38 68.38 0 0 0-9.93 2.8 67.15 67.15 0 0 0-11.42 5.39 45.03 45.03 0 0 1-10.16-3.21 27.28 27.28 0 0 1-3.47-1.92c.89-.84 1.92-1.67 3.09-2.5 2.6-1.82 5.8-3.5 9.45-4.92 3.69 1.4 7.8 2.55 12.18 3.32Zm1.69 10.44a66.7 66.7 0 0 1-11.11-.9 66.78 66.78 0 0 1 10.13-4.66c8.47-3.09 16.68-4.25 23.07-3.7 2.47.22 4.6.7 6.37 1.37a23.58 23.58 0 0 1-5.52 3.47c-5.82 2.71-13.93 4.42-22.94 4.42Zm-27.2-5.55c3.28 2.22 7.79 4.02 13.06 5.18-4.56 2.9-8.18 6.12-10.52 9.34-3.4-1.7-5.42-3.94-5.86-6.45-.45-2.52.69-5.31 3.31-8.07Zm59.2-8.8c0 .59-.09 1.18-.26 1.76a11.7 11.7 0 0 0-1.87-1.76c.72-.55 1.35-1.13 1.88-1.76.16.58.25 1.17.25 1.76Zm-.72-2.96c-.6.82-1.39 1.59-2.37 2.3-2.17-1.41-5-2.5-8.3-3.23 3.38-.15 6.35-.74 8.74-1.74a10.4 10.4 0 0 1 1.93 2.67Zm-32.63-4.8a68.36 68.36 0 0 0 9.92 2.81c-3.27.08-6.72.42-10.26 1.04a67.17 67.17 0 0 0-12.18 3.32 45 45 0 0 1-9.45-4.93 27.48 27.48 0 0 1-3.08-2.49 27.3 27.3 0 0 1 3.47-1.92 45.06 45.06 0 0 1 10.17-3.2 67.03 67.03 0 0 0 11.4 5.38Zm-.15 10.58a66.78 66.78 0 0 1-10.78-2.82 66.72 66.72 0 0 1 10.78-2.82c8.88-1.57 17.16-1.3 23.36.37 2.4.64 4.42 1.47 6.04 2.45a23.6 23.6 0 0 1-6.05 2.45c-6.2 1.66-14.47 1.94-23.35.37Zm-25.83-10.19c2.86 2.76 6.99 5.3 11.97 7.37-4.99 2.06-9.11 4.61-11.98 7.37-3.05-2.26-4.65-4.81-4.65-7.37 0-2.55 1.6-5.11 4.66-7.37Zm59.83 1.62c-.1.58-.29 1.14-.55 1.69-.41-.71-.93-1.4-1.54-2.06.8-.41 1.52-.88 2.15-1.4.06.6.04 1.19-.06 1.77Zm-.19-3.04a10.4 10.4 0 0 1-2.73 1.85 25.67 25.67 0 0 0-7.62-4.63c3.35.45 6.39.39 8.91-.19.68 1 1.16 2 1.44 2.97Zm-31.3-10.4c3.1 1.8 6.23 3.3 9.28 4.5-3.23-.5-6.7-.77-10.28-.77-4.45 0-8.7.41-12.57 1.16a45.12 45.12 0 0 1-8.45-6.5c-1-1-1.88-2-2.6-2.99 1.11-.48 2.37-.91 3.74-1.28 3.08-.83 6.66-1.31 10.57-1.4a67.1 67.1 0 0 0 10.3 7.29Zm-1.98 10.4a66.7 66.7 0 0 1-10.13-4.65c3.46-.59 7.2-.91 11.1-.91 9.02 0 17.13 1.7 22.94 4.42a23.57 23.57 0 0 1 5.53 3.47c-1.77.68-3.9 1.14-6.38 1.36-6.4.56-14.6-.6-23.07-3.7ZM103 99c2.34 3.22 5.96 6.44 10.51 9.34-5.27 1.17-9.78 2.96-13.07 5.18-2.62-2.76-3.76-5.55-3.31-8.07.44-2.52 2.47-4.75 5.87-6.45Zm58.64 12c-.2.55-.49 1.07-.84 1.56a11.8 11.8 0 0 0-1.16-2.3c.86-.26 1.65-.6 2.36-1-.04.6-.16 1.18-.36 1.73Zm.34-3.04c-.84.57-1.85 1.02-3.01 1.35a25.69 25.69 0 0 0-6.7-5.88 25.7 25.7 0 0 0 8.8 1.37c.5 1.1.8 2.16.9 3.16ZM132.96 92.3a68.45 68.45 0 0 0 8.37 6.04 68.4 68.4 0 0 0-10-2.54 67.04 67.04 0 0 0-12.57-1.05 45.1 45.1 0 0 1-7.2-7.86c-.82-1.17-1.5-2.3-2.05-3.4 1.2-.28 2.5-.5 3.92-.62 3.17-.27 6.78-.13 10.65.47a67.07 67.07 0 0 0 8.88 8.96Zm-3.75 9.9a66.77 66.77 0 0 1-9.17-6.35c3.51.02 7.25.36 11.1 1.04 8.88 1.56 16.57 4.65 21.82 8.34a23.55 23.55 0 0 1 4.84 4.37c-1.86.37-4.05.45-6.52.24-6.39-.56-14.27-3.14-22.07-7.65Zm-20.79-18.42c1.75 3.56 4.75 7.37 8.73 11.02-5.39.23-10.14 1.21-13.77 2.82-2.1-3.16-2.73-6.12-1.86-8.52.88-2.4 3.26-4.25 6.9-5.32Zm.26-10.02c-1.28 2.2-1.17 5.23.35 8.7 3.86-.95 8.7-1.09 14.06-.38-3.3-4.28-5.59-8.55-6.69-12.37-3.77.42-6.44 1.83-7.72 4.05Zm55.4 32.01c-.29.51-.65.98-1.1 1.4-.14-.8-.39-1.63-.74-2.46.9-.12 1.74-.31 2.5-.59-.14.6-.36 1.14-.65 1.65Zm.87-2.92c-.93.41-2 .68-3.2.8a25.68 25.68 0 0 0-5.58-6.95c3 1.56 5.87 2.55 8.44 2.87.3 1.17.4 2.27.34 3.28Zm-25.86-20.48a68.48 68.48 0 0 0 7.19 7.4c-2.88-1.58-6.03-3.01-9.4-4.24a67.11 67.11 0 0 0-12.2-3.22 45.06 45.06 0 0 1-5.73-9c-.6-1.28-1.08-2.52-1.43-3.7 1.23-.07 2.55-.04 3.97.08 3.17.28 6.7 1.05 10.4 2.3a67.16 67.16 0 0 0 7.2 10.38Zm-5.42 9.09c-3-2.52-5.65-5.17-7.92-7.84 3.45.63 7.07 1.6 10.75 2.95 8.47 3.08 15.5 7.46 20.03 12a23.62 23.62 0 0 1 4.01 5.15 23.6 23.6 0 0 1-6.46-.9c-6.2-1.66-13.5-5.56-20.4-11.36ZM118.4 59.89c-1.64 1.95-2.05 4.94-1.16 8.64 3.96-.27 8.76.43 13.9 2.06-2.49-4.8-4.01-9.4-4.43-13.35-3.8-.24-6.66.69-8.3 2.65Zm49 41.15c-.37.45-.81.85-1.32 1.19 0-.82-.1-1.68-.3-2.56.9.05 1.76 0 2.57-.14a6.34 6.34 0 0 1-.94 1.51Zm1.36-2.73c-.98.25-2.08.33-3.28.24a25.74 25.74 0 0 0-4.3-7.82 25.67 25.67 0 0 0 7.82 4.3c.09 1.2 0 2.3-.24 3.28Zm-21.91-24.66a68.39 68.39 0 0 0 5.8 8.53c-2.56-2.04-5.42-4-8.53-5.8-3.85-2.23-7.73-4-11.45-5.29a45.06 45.06 0 0 1-4.08-9.85 27.45 27.45 0 0 1-.76-3.9c1.22.14 2.52.4 3.9.77 3.06.82 6.4 2.2 9.84 4.08a67.05 67.05 0 0 0 5.28 11.46Zm-6.9 8.01c-2.52-3-4.68-6.07-6.45-9.1a66.76 66.76 0 0 1 10.07 4.77c7.8 4.52 13.97 10.05 17.65 15.31a23.61 23.61 0 0 1 3.05 5.77c-1.87-.3-3.95-.96-6.2-2.01-5.82-2.71-12.34-7.83-18.13-14.74Zm-12.22-25.44c3.95.42 8.55 1.95 13.33 4.44-1.62-5.15-2.32-9.95-2.05-13.91-3.69-.9-6.68-.48-8.63 1.16-1.96 1.64-2.89 4.52-2.65 8.31Zm12.44-5.2a45.1 45.1 0 0 0 2.3 10.4 67.07 67.07 0 0 1 10.37 7.2 68.46 68.46 0 0 1 7.39 7.2c-1.57-2.87-3-6.03-4.23-9.4a67.08 67.08 0 0 1-3.21-12.22 45.09 45.09 0 0 0-9-5.73 27.44 27.44 0 0 0-3.7-1.43 27.6 27.6 0 0 0 .08 3.97Zm11.96 18.45c-3-2.52-6.07-4.67-9.09-6.45a66.92 66.92 0 0 0 4.76 10.08c4.51 7.81 10.04 13.98 15.3 17.66a23.6 23.6 0 0 0 5.76 3.06c-.3-1.87-.96-3.96-2-6.2-2.72-5.83-7.83-12.35-14.73-18.15Zm17.85 28.43c.14-.8.19-1.67.14-2.57.88.2 1.74.3 2.55.3a6.37 6.37 0 0 1-2.7 2.27Zm-2.83-12.18c1.56 3 2.55 5.88 2.87 8.45 1.17.3 2.27.4 3.28.34.4-.93.68-2 .8-3.2a25.69 25.69 0 0 1-6.95-5.59Zm-26.96-39.8c3.82 1.1 8.09 3.4 12.36 6.7-.7-5.36-.56-10.2.4-14.07-3.48-1.52-6.5-1.63-8.7-.35-2.22 1.28-3.63 3.94-4.06 7.72Zm13.16-2.97c-.28 3.17-.13 6.79.46 10.66a67.1 67.1 0 0 1 8.96 8.9 68.4 68.4 0 0 1 6.03 8.37 68.43 68.43 0 0 1-2.54-10 67.34 67.34 0 0 1-1.04-12.6 45.02 45.02 0 0 0-7.86-7.2c-1.16-.81-2.3-1.5-3.4-2.05a27.6 27.6 0 0 0-.6 3.92Zm8.57 20.26c-2.51-3-5.16-5.66-7.83-7.93a66.9 66.9 0 0 0 2.94 10.75c3.09 8.48 7.46 15.52 12 20.06a23.56 23.56 0 0 0 5.14 4 23.6 23.6 0 0 0-.9-6.45c-1.65-6.2-5.55-13.52-11.35-20.43Zm12.65 31.1c.27-.77.47-1.6.58-2.5.84.34 1.66.6 2.46.74a6.4 6.4 0 0 1-3.04 1.76Zm-.67-12.48a25.73 25.73 0 0 1 1.35 8.81c1.1.5 2.16.8 3.17.9.57-.83 1.02-1.84 1.35-3a25.67 25.67 0 0 1-5.87-6.71Zm-19.64-43.88c3.56 1.74 7.37 4.75 11 8.73.24-5.39 1.22-10.14 2.84-13.77-3.17-2.1-6.12-2.74-8.52-1.87-2.4.88-4.25 3.26-5.32 6.9Zm18.4 20.8a66.79 66.79 0 0 0-6.34-9.17 67 67 0 0 0 1.03 11.1c1.56 8.88 4.65 16.58 8.33 21.83a23.62 23.62 0 0 0 4.37 4.85c.36-1.86.45-4.05.24-6.52-.56-6.4-3.13-14.28-7.64-22.1Zm7.05 32.82c.4-.7.74-1.5 1-2.36.77.49 1.54.88 2.3 1.16a6.36 6.36 0 0 1-3.3 1.2Zm1.5-12.4c.44 3.35.39 6.39-.19 8.91 1 .68 1.99 1.16 2.96 1.44.7-.73 1.32-1.64 1.85-2.73a25.7 25.7 0 0 1-4.62-7.62ZM167.72 37.3a45.12 45.12 0 0 0-1.4 10.57 67.17 67.17 0 0 1 7.28 10.32c1.8 3.1 3.29 6.24 4.48 9.3-.5-3.25-.76-6.7-.76-10.3 0-4.45.42-8.7 1.16-12.58a45.04 45.04 0 0 0-6.49-8.46c-1-1-2-1.87-2.99-2.6a27.5 27.5 0 0 0-1.28 3.75Zm1.76-4.78c3.2 2.34 6.43 5.97 9.32 10.52 1.17-5.27 2.96-9.78 5.18-13.08-2.75-2.62-5.54-3.75-8.06-3.31-2.51.44-4.75 2.47-6.44 5.87Zm14.5 23.69a66.8 66.8 0 0 0-4.64-10.14 66.9 66.9 0 0 0-.91 11.12c0 9.02 1.7 17.13 4.4 22.95a23.63 23.63 0 0 0 3.47 5.53c.68-1.77 1.15-3.91 1.37-6.38.56-6.4-.6-14.6-3.69-23.08Zm4.72 32.94c-.7-.41-1.4-.93-2.06-1.54-.41.8-.88 1.52-1.4 2.15a6.36 6.36 0 0 0 3.46-.61Zm18.36 98.3c0-9.02-1.7-17.13-4.4-22.95a23.58 23.58 0 0 0-3.47-5.53 23.63 23.63 0 0 0-1.37 6.38c-.56 6.4.6 14.6 3.69 23.08a66.8 66.8 0 0 0 4.64 10.14c.59-3.46.91-7.2.91-11.12Zm.35-10.3c.5 3.25.76 6.7.76 10.3 0 4.45-.42 8.7-1.16 12.58a45.1 45.1 0 0 0 6.49 8.46c1 1 2 1.87 2.99 2.6.48-1.12.91-2.37 1.28-3.75a45.07 45.07 0 0 0 1.4-10.57 67.08 67.08 0 0 1-7.28-10.32 68.64 68.64 0 0 1-4.48-9.3Zm-3.12-11.66c-.44-3.36-.38-6.4.2-8.92-1-.68-2-1.16-2.97-1.44-.7.73-1.32 1.64-1.85 2.73 1.76 1.9 3.33 4.5 4.62 7.63Zm1.16-8.2a23.59 23.59 0 0 0-.23 6.52c.55 6.4 3.12 14.28 7.63 22.1a66.77 66.77 0 0 0 6.33 9.16 66.9 66.9 0 0 0-1.03-11.1c-1.56-8.88-4.65-16.58-8.33-21.83a23.6 23.6 0 0 0-4.37-4.85Zm14.83 39.07c.06-3.94-.27-8.2-1.04-12.58a68.4 68.4 0 0 0-2.53-10c1.7 2.8 3.72 5.62 6.02 8.37 2.86 3.4 5.9 6.4 8.96 8.89.6 3.87.74 7.49.46 10.66a27.45 27.45 0 0 1-.62 3.92 27.4 27.4 0 0 1-3.4-2.05 45.04 45.04 0 0 1-7.85-7.2Zm12.67-4.33c.7 5.36.56 10.2-.4 14.07 3.48 1.52 6.5 1.63 8.7.35 2.22-1.28 3.63-3.94 4.06-7.72-3.82-1.1-8.09-3.4-12.36-6.7Zm12.45 5.58c-1.17-.36-2.4-.83-3.7-1.43a45.11 45.11 0 0 1-8.99-5.73 68.53 68.53 0 0 0-7.44-21.62 68.47 68.47 0 0 0 7.4 7.2 67.11 67.11 0 0 0 10.36 7.2 45.11 45.11 0 0 1 2.3 10.4c.12 1.43.14 2.75.07 3.98Zm-1.47-15.15a67.12 67.12 0 0 0-5.28-11.46 68.52 68.52 0 0 0-5.8-8.53c2.56 2.04 5.42 4 8.53 5.8 3.85 2.23 7.73 4 11.46 5.29a45.11 45.11 0 0 1 4.07 9.85c.37 1.38.62 2.68.76 3.9-1.22-.14-2.52-.4-3.9-.76a45.1 45.1 0 0 1-9.84-4.09ZM252 172.1a66.73 66.73 0 0 1-10.07-4.78c-7.8-4.5-13.97-10.04-17.65-15.3a23.63 23.63 0 0 1-3.05-5.77c1.87.3 3.96.96 6.2 2.01 5.82 2.71 12.34 7.83 18.13 14.74 2.51 3 4.67 6.07 6.44 9.1Zm1.6.56a67.05 67.05 0 0 0-7.2-10.37 68.52 68.52 0 0 0-7.19-7.4c2.88 1.58 6.03 3.01 9.4 4.24a67.14 67.14 0 0 0 12.2 3.22 45.06 45.06 0 0 1 5.73 9c.6 1.28 1.08 2.52 1.43 3.7-1.23.07-2.55.04-3.97-.08a45.08 45.08 0 0 1-10.4-2.3Zm6.14-11.62a66.77 66.77 0 0 1-10.75-2.95c-8.47-3.08-15.5-7.46-20.03-12a23.6 23.6 0 0 1-4.01-5.15c1.9-.04 4.06.26 6.46.9 6.2 1.66 13.5 5.56 20.4 11.36 3 2.52 5.66 5.17 7.93 7.84Zm1.67.28a67.11 67.11 0 0 0-8.88-8.96 68.45 68.45 0 0 0-8.37-6.04 68.45 68.45 0 0 0 10 2.54c4.38.77 8.63 1.1 12.57 1.05a44.97 44.97 0 0 1 7.2 7.86 27.4 27.4 0 0 1 2.05 3.4c-1.2.28-2.5.5-3.92.62-3.17.27-6.78.13-10.65-.47Zm4.03-12.51c-3.5-.02-7.24-.36-11.09-1.04-8.88-1.56-16.57-4.66-21.82-8.34a23.58 23.58 0 0 1-4.84-4.37c1.86-.37 4.05-.45 6.52-.24 6.39.56 14.27 3.14 22.07 7.65a66.76 66.76 0 0 1 9.17 6.34Zm1.7-.01a67.06 67.06 0 0 0-10.3-7.29 68.4 68.4 0 0 0-9.3-4.49c3.24.5 6.7.76 10.3.76a67 67 0 0 0 12.56-1.15 45.1 45.1 0 0 1 8.45 6.5c1.01 1 1.88 2 2.61 2.99-1.13.48-2.38.91-3.75 1.28-3.07.83-6.66 1.31-10.57 1.4Zm1.8-13.03c-3.45.59-7.2.91-11.1.91-9.02 0-17.13-1.7-22.94-4.42a23.57 23.57 0 0 1-5.53-3.47 23.6 23.6 0 0 1 6.38-1.36c6.4-.56 14.6.6 23.06 3.7a66.71 66.71 0 0 1 10.13 4.64Zm1.67-.3a67.08 67.08 0 0 0-11.42-5.39 68.31 68.31 0 0 0-9.92-2.8c3.27-.08 6.72-.42 10.26-1.04a67.13 67.13 0 0 0 12.18-3.32 45.05 45.05 0 0 1 9.45 4.93c1.17.82 2.2 1.65 3.09 2.49a27.38 27.38 0 0 1-3.48 1.92 45.06 45.06 0 0 1-10.16 3.2Zm-.49-13.14a66.86 66.86 0 0 1-10.78 2.82c-8.88 1.57-17.16 1.3-23.36-.37a23.56 23.56 0 0 1-6.04-2.45 23.6 23.6 0 0 1 6.05-2.45c6.2-1.67 14.47-1.94 23.35-.37a66.7 66.7 0 0 1 10.78 2.82Zm1.59-.6a67.17 67.17 0 0 0-12.18-3.31 68.4 68.4 0 0 0-10.26-1.04 68.34 68.34 0 0 0 9.93-2.8 67.12 67.12 0 0 0 11.42-5.39c3.83.77 7.28 1.87 10.16 3.21 1.29.6 2.45 1.25 3.47 1.92-.89.84-1.92 1.67-3.09 2.5a45 45 0 0 1-9.45 4.92Zm-2.76-12.84a66.8 66.8 0 0 1-10.13 4.65c-8.47 3.08-16.67 4.25-23.06 3.7a23.6 23.6 0 0 1-6.38-1.37 23.6 23.6 0 0 1 5.53-3.47c5.8-2.71 13.92-4.42 22.93-4.42 3.92 0 7.66.32 11.11.9Zm1.46-.86a67 67 0 0 0-12.56-1.16c-3.6 0-7.06.27-10.3.77 3.06-1.2 6.19-2.7 9.3-4.5a67.17 67.17 0 0 0 10.3-7.28c3.92.09 7.5.57 10.58 1.4 1.37.37 2.62.8 3.75 1.28a27.4 27.4 0 0 1-2.61 3 45.13 45.13 0 0 1-8.46 6.49Zm-4.95-12.18a66.8 66.8 0 0 1-9.16 6.34c-7.81 4.51-15.69 7.09-22.08 7.65-2.47.21-4.66.13-6.52-.24a23.63 23.63 0 0 1 4.84-4.37c5.26-3.69 12.95-6.78 21.83-8.34 3.85-.68 7.59-1.02 11.1-1.04Zm1.3-1.1a67.1 67.1 0 0 0-12.58 1.05c-3.54.62-6.9 1.49-10 2.54 2.8-1.7 5.62-3.73 8.37-6.04 3.4-2.86 6.4-5.9 8.89-8.96 3.87-.6 7.48-.74 10.65-.47 1.42.13 2.73.34 3.92.62a27.52 27.52 0 0 1-2.05 3.4 45.15 45.15 0 0 1-7.2 7.86Zm-7-11.13a66.92 66.92 0 0 1-7.92 7.84c-6.9 5.8-14.22 9.7-20.42 11.36-2.4.64-4.56.94-6.46.9.92-1.66 2.26-3.39 4.01-5.15 4.54-4.54 11.58-8.92 20.05-12a66.74 66.74 0 0 1 10.75-2.95Zm1.09-1.3a67.1 67.1 0 0 0-12.2 3.21 68.53 68.53 0 0 0-9.41 4.24 68.5 68.5 0 0 0 7.2-7.4 67.14 67.14 0 0 0 7.2-10.37 45.07 45.07 0 0 1 10.4-2.31c1.42-.12 2.74-.15 3.97-.08a27.5 27.5 0 0 1-1.43 3.7 45.13 45.13 0 0 1-5.73 9Zm-8.81-9.76a66.79 66.79 0 0 1-6.45 9.1c-5.8 6.91-12.32 12.03-18.14 14.74a23.6 23.6 0 0 1-6.2 2c.61-1.79 1.63-3.72 3.05-5.76 3.68-5.26 9.85-10.8 17.66-15.3a66.89 66.89 0 0 1 10.08-4.78Zm2.35-1.97c5.15-1.63 9.95-2.33 13.91-2.06.9-3.7.48-6.69-1.16-8.65-1.64-1.95-4.5-2.88-8.3-2.64-.42 3.95-1.95 8.56-4.45 13.35Zm-37.22 28.94a6.34 6.34 0 0 0 2.26 2.7c0-.82.1-1.68.3-2.56-.9.05-1.75 0-2.56-.14Zm3.73.04c-.3 1.17-.41 2.27-.34 3.28.92.41 2 .68 3.2.8a25.72 25.72 0 0 1 5.58-6.95 25.7 25.7 0 0 1-8.44 2.87Zm48.23-29.86c-1.1 3.82-3.4 8.09-6.7 12.37 5.35-.7 10.2-.57 14.06.39 1.52-3.48 1.63-6.5.36-8.71-1.28-2.22-3.95-3.63-7.72-4.05Zm-48.37 34.41a6.36 6.36 0 0 0 1.75 3.05c.15-.8.4-1.63.75-2.46-.9-.12-1.73-.31-2.5-.59Zm3.66.69c-.5 1.1-.8 2.16-.9 3.17.83.56 1.84 1.01 3 1.34a25.73 25.73 0 0 1 6.7-5.88 25.7 25.7 0 0 1-8.8 1.37Zm43.94-10.01c5.39.23 10.14 1.21 13.77 2.82 2.1-3.16 2.73-6.12 1.86-8.52-.87-2.4-3.25-4.25-6.9-5.32-1.74 3.56-4.75 7.37-8.73 11.02Zm-44.87 14.46a6.31 6.31 0 0 0 1.2 3.31c.28-.77.67-1.54 1.16-2.3-.86-.26-1.65-.6-2.36-1Zm3.49 1.31c-.68 1-1.16 2-1.44 2.97.72.7 1.64 1.32 2.72 1.85a25.7 25.7 0 0 1 7.63-4.63c-3.36.45-6.39.39-8.91-.19Zm45-2.22c5.27 1.17 9.77 2.96 13.07 5.18 2.62-2.76 3.76-5.55 3.31-8.07-.44-2.52-2.46-4.75-5.86-6.45-2.34 3.22-5.96 6.44-10.52 9.34Zm-46.7 6.45a6.35 6.35 0 0 0 .62 3.47c.4-.71.93-1.4 1.54-2.06-.8-.41-1.52-.88-2.15-1.4Zm3.21 1.9a10.4 10.4 0 0 0-1.93 2.67c.6.82 1.39 1.59 2.37 2.3 2.17-1.41 5-2.5 8.3-3.23a25.68 25.68 0 0 1-8.74-1.74Zm44.7 5.63c5 2.06 9.12 4.61 11.98 7.37 3.06-2.26 4.66-4.81 4.66-7.37 0-2.55-1.6-5.11-4.65-7.37-2.87 2.76-7 5.3-11.98 7.37Zm-47.1-1.76a6.35 6.35 0 0 0 0 3.52 11.7 11.7 0 0 1 1.88-1.76 11.7 11.7 0 0 1-1.87-1.76Zm2.84 2.43c-.98.7-1.78 1.47-2.37 2.29.44.91 1.09 1.8 1.93 2.67 2.39-1 5.36-1.59 8.74-1.73a25.71 25.71 0 0 1-8.3-3.23Zm43.04 13.3c4.55 2.9 8.17 6.13 10.51 9.34 3.4-1.68 5.43-3.92 5.87-6.44.45-2.52-.69-5.31-3.3-8.07-3.3 2.22-7.81 4.02-13.08 5.18Zm-46.08-9.9a6.36 6.36 0 0 0-.6 3.46c.62-.53 1.34-1 2.15-1.4a11.72 11.72 0 0 1-1.55-2.07Zm2.37 2.87c-1.09.53-2 1.15-2.73 1.85.28.97.76 1.97 1.44 2.97 2.52-.58 5.56-.64 8.9-.2a25.68 25.68 0 0 1-7.61-4.62Zm40.07 20.6c3.99 3.64 6.99 7.45 8.74 11.01 3.64-1.07 6.02-2.92 6.9-5.32.87-2.4.24-5.36-1.86-8.52-3.63 1.6-8.38 2.6-13.78 2.82Zm-43.65-17.78a6.34 6.34 0 0 0-1.2 3.3c.7-.4 1.5-.74 2.36-1-.49-.76-.88-1.53-1.16-2.3Zm1.83 3.25a10.4 10.4 0 0 0-3 1.34c.1 1.01.4 2.07.9 3.17 2.58-.12 5.58.35 8.8 1.37a25.7 25.7 0 0 1-6.7-5.88Zm35.9 27.24c3.28 4.28 5.58 8.55 6.68 12.37 3.78-.42 6.44-1.83 7.72-4.05 1.28-2.2 1.17-5.22-.35-8.71-3.86.96-8.7 1.1-14.06.39Zm-39.9-25.09a6.37 6.37 0 0 0-1.77 3.05c.77-.28 1.61-.47 2.5-.59-.34-.83-.6-1.65-.74-2.46Zm1.23 3.52c-1.2.12-2.27.39-3.2.8-.07 1.01.05 2.1.34 3.28a25.7 25.7 0 0 1 8.44 2.87 25.67 25.67 0 0 1-5.58-6.95Zm30.62 33.06c2.49 4.8 4.01 9.4 4.43 13.35 3.8.24 6.66-.69 8.3-2.64 1.65-1.96 2.06-4.95 1.17-8.65-3.96.27-8.76-.43-13.9-2.06Zm-34.94-31.64a6.38 6.38 0 0 0-2.26 2.7c.8-.14 1.66-.19 2.56-.14-.2-.88-.3-1.74-.3-2.56Zm.6 3.68c-1.2-.09-2.3 0-3.28.24-.25.98-.33 2.08-.24 3.28 2.47.77 5.13 2.24 7.81 4.3a25.7 25.7 0 0 1-4.29-7.82ZM244.44 184c1.62 5.15 2.32 9.95 2.05 13.91 3.69.9 6.68.48 8.63-1.16 1.96-1.64 2.89-4.52 2.65-8.31-3.95-.42-8.55-1.95-13.33-4.44Zm-28.92-37.24a6.35 6.35 0 0 0-2.7 2.27c.82 0 1.68.1 2.56.3-.04-.9 0-1.76.14-2.57Zm-.04 3.73c-1.17-.3-2.27-.4-3.27-.34-.42.93-.69 2-.8 3.2a25.66 25.66 0 0 1 6.94 5.59 25.7 25.7 0 0 1-2.87-8.45Zm1.16.35c.3 1.87.96 3.96 2 6.2 2.72 5.83 7.83 12.35 14.73 18.15 3 2.52 6.07 4.68 9.09 6.45a66.73 66.73 0 0 0-4.77-10.08c-4.5-7.81-10.03-13.98-15.29-17.66a23.6 23.6 0 0 0-5.76-3.06Zm-5.7-.49a6.33 6.33 0 0 0-3.05 1.76c.8.15 1.62.4 2.46.75.11-.9.3-1.74.58-2.51Zm-.7 3.67c-1.1-.5-2.16-.8-3.16-.9-.57.83-1.02 1.84-1.35 3a25.7 25.7 0 0 1 5.88 6.71 25.72 25.72 0 0 1-1.36-8.81Zm1.09.54a23.6 23.6 0 0 1 5.14 4.01c4.54 4.54 8.91 11.58 12 20.06a66.68 66.68 0 0 1 2.94 10.75 66.73 66.73 0 0 1-7.83-7.93c-5.8-6.91-9.7-14.22-11.35-20.43-.64-2.4-.94-4.56-.9-6.46Zm8.9 43.41c-.23 5.4-1.22 10.15-2.82 13.78 3.16 2.1 6.1 2.74 8.5 1.87 2.4-.88 4.26-3.26 5.34-6.9-3.57-1.75-7.38-4.76-11.02-8.75ZM205.8 153.1a6.34 6.34 0 0 0-3.3 1.2c.77.28 1.53.67 2.3 1.16.26-.86.6-1.65 1-2.36Zm-5.53 1.8c-.53.63-1 1.35-1.41 2.15a11.71 11.71 0 0 0-2.06-1.54 6.34 6.34 0 0 1 3.47-.61ZM216 212.13c-1.69 3.4-3.93 5.43-6.44 5.87-2.52.44-5.31-.7-8.06-3.31 2.22-3.3 4.01-7.81 5.18-13.08 2.89 4.55 6.12 8.18 9.32 10.52Z" fill="url(#A)"/>
    <path fill-rule="evenodd" clip-rule="evenodd" d="M337.3 59.22a4.79 4.79 0 1 0 0-9.57 4.79 4.79 0 0 0 0 9.57Zm0-1.1a3.68 3.68 0 1 0 0-7.36 3.68 3.68 0 0 0 0 7.36Z" fill="url(#B)"/>
    <path fill-rule="evenodd" clip-rule="evenodd" d="M330.87 39.26a6.35 6.35 0 0 1 12.69 0v2.94a.55.55 0 1 1-1.1 0v-2.94a5.24 5.24 0 1 0-10.49 0v6.71h15.26c.61 0 1.1.5 1.1 1.1V61.8c0 .6-.5 1.1-1.1 1.1h-19.86c-.61 0-1.1-.5-1.1-1.1V47.08c0-.61.5-1.1 1.1-1.1h3.5v-6.72Zm16.36 7.82V61.8h-19.86V47.08h19.86Z" fill="url(#C)"/>
    <path fill-rule="evenodd" clip-rule="evenodd" d="m47.09 182.7-11.16 5.59a1.28 1.28 0 0 0-2.08 1.01c0 .51.3.96.73 1.16v10.92a1.29 1.29 0 1 0 1.34 2.18l11.16 5.58v.03a1.29 1.29 0 1 0 2.57 0v-.03l11.16-5.58a1.29 1.29 0 1 0 1.35-2.18v-10.91a1.29 1.29 0 1 0-1.34-2.18l-11.16-5.58v-.03a1.29 1.29 0 1 0-2.57 0v.03Zm.73 5.16v-4.02l-.24-.15-11.16 5.59v.05l4.23 2.11 7.17-3.58Zm-12.14 13.52c.09.04.17.1.24.15l4.17-2.08v-7.05l-4.16-2.08-.24.15v10.91Zm4.97-.97-4.23 2.11v.05l11.15 5.59.24-.15v-4.02l-7.16-3.59Zm8.27-12.55v-4.02c.1-.04.17-.09.25-.15l11.15 5.59v.05l-4.23 2.11-7.17-3.58Zm12.14 2.6v10.92c-.1.04-.17.1-.25.15l-4.17-2.08v-7.05l4.18-2.08.24.15Zm-4.97 9.94 4.23 2.12v.05l-11.16 5.59-.24-.15v-4.02l7.17-3.59Zm-1.23-8.34-6.49-3.25-6.49 3.25 6.49 3.25 6.49-3.25Zm.68.9v6.49l-6.62 3.3v-6.49l6.62-3.3Zm-14.34 0 6.62 3.3v6.5l-6.62-3.31v-6.5Z" fill="url(#D)"/>
    <path fill-rule="evenodd" clip-rule="evenodd" d="M48.24 50.02a2.2 2.2 0 1 1-4.41 0 2.2 2.2 0 0 1 4.41 0Zm-1.1 0a1.1 1.1 0 1 1-2.21 0 1.1 1.1 0 0 1 2.2 0Z" fill="url(#E)"/>
    <path fill-rule="evenodd" clip-rule="evenodd" d="M40.52 44.5c-.3 0-.55.25-.55.55v14.36c0 .3.24.55.55.55h15.44c.3 0 .55-.25.55-.55V45.05c0-.3-.24-.55-.54-.55H40.52Zm3.24 10.88-2.7 2.7.01-12.47h14.34v5.84a1.65 1.65 0 0 0-2.27.07l-5.45 5.45-1.59-1.59a1.65 1.65 0 0 0-2.34 0ZM54.7 52.3l.71.71v5.84H41.85l2.69-2.69a.55.55 0 0 1 .78 0l1.59 1.59a1.1 1.1 0 0 0 1.56 0l5.45-5.45a.55.55 0 0 1 .78 0Z" fill="url(#F)"/>
    <path fill-rule="evenodd" clip-rule="evenodd" d="M59.83 40.41v21.2c0 .92-.75 1.66-1.66 1.66H38.3c-.92 0-1.66-.74-1.66-1.66l.01-26.5c0-.9.74-1.65 1.66-1.65h14.57l6.94 6.95Zm-7.72-5.84H38.3c-.3 0-.54.24-.54.55l-.01 26.5c0 .3.24.55.55.55h19.86c.3 0 .55-.25.55-.56V41.2h-6.06a.55.55 0 0 1-.55-.55v-6.07Zm5.84 5.52-4.74-4.74v4.74h4.74Z" fill="url(#G)"/>
    <path fill-rule="evenodd" clip-rule="evenodd" d="M333.5 184.18a3.86 3.86 0 0 1 3.8.61l7.85 6.4-.7.55c-.98.79-2.37.81-3.38.05l-3.12-2.34a.55.55 0 0 0-.72.05l-2.5 2.5a3.25 3.25 0 0 1-4.59 0 .87.87 0 0 0-1.22 0l-3.82 3.81h-4.95c-.3 0-.55.25-.55.56 0 .3.24.55.55.55h3.89a2.39 2.39 0 0 0 2.14 3.76 2.38 2.38 0 0 0 2.6 2.59 2.38 2.38 0 0 0 3.23 2.44 2.38 2.38 0 0 0 4.05 1.4l1.07-1.06 2.2 2.2a2.15 2.15 0 0 0 3.66-1.36 2.15 2.15 0 0 0 2.6-1.94 2.15 2.15 0 0 0 2.58-1.94 2.15 2.15 0 0 0 2.31-3.18h2.99a.55.55 0 0 0 0-1.1h-3.98l-1.62-1.62a2.15 2.15 0 0 0-3.67 1.35 2.15 2.15 0 0 0-2.59 1.95 2.15 2.15 0 0 0-2.58 1.94 2.15 2.15 0 0 0-2.5 2.74l-1.25 1.24a1.28 1.28 0 1 1-1.8-1.8l.64-.65.65-.65a.55.55 0 1 0-.78-.78l-1.3 1.3h-.01l-.63.64a1.28 1.28 0 1 1-1.81-1.8l1.3-1.3a.55.55 0 0 0-.7-.85l-.03.02-.02.01a.45.45 0 0 0-.04.04l-1.29 1.3a1.28 1.28 0 0 1-1.8-1.82l1.29-1.3.04-.04a.55.55 0 0 0-.04-.74.55.55 0 0 0-.78 0l-1.3 1.3a1.28 1.28 0 1 1-1.8-1.8l.63-.65.02-.01 3.81-3.82a4.35 4.35 0 0 0 5.99-.16l2.15-2.15 2.74 2.06a3.86 3.86 0 0 0 4.73-.08l.7-.56a1.1 1.1 0 0 0 0-1.71l-5.42-4.42h4.47c.86 0 1.71.23 2.46.66l1.12.64h5a.55.55 0 0 0 0-1.1h-4.7l-.87-.5a6.07 6.07 0 0 0-3.01-.8h-5.83l-1.07-.87a4.96 4.96 0 0 0-4.87-.8l-7.9 2.96h-5.07a.55.55 0 0 0 0 1.1h5.18c.06 0 .13 0 .19-.03l7.98-3Zm11.3 15.96v-.01l-.3-.3a1.05 1.05 0 0 0-1.49 1.49l2.27 2.26a1.05 1.05 0 0 0 1.5-1.46l-1.95-1.97-.02-.01Zm3.07 1.5-.32-.32-1.94-1.95a1.05 1.05 0 0 1 1.48-1.48l2.27 2.27a1.05 1.05 0 0 1-1.49 1.48Zm-3.7 2.4-2.26-2.27a1.05 1.05 0 0 0-1.5 1.47l2.28 2.28a1.05 1.05 0 0 0 1.49-1.48Zm-4.52 0 1.94 1.94a1.05 1.05 0 0 1-1.48 1.49l-2.27-2.27a1.05 1.05 0 0 1 1.49-1.48l.3.3.02.02Z" fill="url(#H)"/>
  </g>
  <path d="M124.17 148.98c0-.45.1-.85.3-1.21a2.22 2.22 0 0 1 2-1.15c.5 0 .94.12 1.32.36.37.24.65.59.82 1.03h-.72c-.13-.27-.32-.49-.56-.64a1.58 1.58 0 0 0-.86-.22 1.56 1.56 0 0 0-1.47.87c-.14.27-.22.59-.22.96s.07.69.22.97c.14.27.35.48.6.63.26.15.55.23.87.23a1.44 1.44 0 0 0 1.42-.86h.72a2.1 2.1 0 0 1-.82 1.03 2.4 2.4 0 0 1-1.32.35 2.23 2.23 0 0 1-2-1.14 2.4 2.4 0 0 1-.3-1.2Z" fill="url(#I)"/>
  <path d="M142.72 151.34a2.25 2.25 0 0 1-2.32-2.36c0-.45.1-.85.3-1.21a2.31 2.31 0 0 1 2.01-1.15c.44 0 .83.1 1.19.3.35.2.63.49.83.84.2.36.3.77.3 1.22 0 .46-.1.86-.3 1.22-.2.36-.48.64-.83.84-.36.2-.75.3-1.18.3Zm0-.52c.32 0 .6-.08.86-.23.26-.15.47-.36.61-.64a2 2 0 0 0 .23-.97c0-.37-.08-.7-.23-.97-.14-.27-.34-.49-.6-.64a1.7 1.7 0 0 0-.87-.22c-.33 0-.62.07-.88.22-.25.15-.45.37-.6.64-.15.28-.22.6-.22.97s.07.69.22.97a1.61 1.61 0 0 0 1.48.87Z" fill="url(#J)"/>
  <path d="M157.55 150.8h1.62v.5h-2.22v-4.62h.6v4.12Z" fill="url(#K)"/>
  <path d="M171.53 150.8h1.62v.5h-2.22v-4.62h.6v4.12Z" fill="url(#L)"/>
  <path d="M185.51 147.17v1.54h1.68v.5h-1.68v1.59h1.88v.5h-2.48v-4.63h2.48v.5h-1.88Z" fill="url(#M)"/>
  <path d="M199.2 148.98c0-.45.1-.85.3-1.21a2.22 2.22 0 0 1 2-1.15c.5 0 .94.12 1.32.36.38.24.65.59.82 1.03h-.72c-.13-.27-.31-.49-.56-.64a1.58 1.58 0 0 0-.86-.22 1.57 1.57 0 0 0-1.47.87c-.14.27-.22.59-.22.96s.08.69.22.97c.15.27.35.48.6.63.26.15.55.23.87.23a1.44 1.44 0 0 0 1.42-.86h.72c-.17.44-.45.78-.82 1.03a2.4 2.4 0 0 1-1.32.35 2.22 2.22 0 0 1-2-1.14 2.4 2.4 0 0 1-.3-1.2Z" fill="url(#N)"/>
  <path d="M218.5 146.68v.49h-1.26v4.12h-.6v-4.12h-1.27v-.5h3.13Z" fill="url(#O)"/>
  <path d="M230.96 146.68v4.61h-.6v-4.61h.6Z" fill="url(#P)"/>
  <path d="m246.92 146.68-1.74 4.61h-.7l-1.73-4.61h.64l1.45 3.98 1.45-3.98h.63Z" fill="url(#Q)"/>
  <path d="M259.3 147.17v1.54H261v.5h-1.68v1.59h1.88v.5h-2.49v-4.63h2.49v.5h-1.88Z" fill="url(#R)"/>
  <path d="M145.38 109.21c-2.06-1.37-4.95-2.06-8.59-2.06h-12.44v.2l1.51.56c.69.13 1.24.48 1.51.96.28.48.48 1.44.62 2.89.07 1.44.14 3.99.13 7.63v5.5c0 3.65-.07 6.2-.2 7.64a8.26 8.26 0 0 1-.63 2.9c-.2.47-.75.82-1.44 1.1l-1.51.47v.2h14.7v-.2l-2.33-.48c-1.1-.2-1.86-.55-2.27-1.03-.41-.48-.69-1.45-.89-2.89a67.3 67.3 0 0 1-.27-7.7v-7.7c0-3.45.07-5.79.14-7.03.07-1.23.14-1.92.28-2.2h.75c2.55 0 4.54.62 5.98 1.93 1.45 1.3 2.2 3.37 2.2 6.33 0 1.92-.34 3.37-1.1 4.54a6.67 6.67 0 0 1-2.61 2.4c-1.03.49-2.27.97-3.85 1.38l.06.42c3.24-.28 5.78-.83 7.77-1.8 2-.96 3.37-2.06 4.27-3.36.9-1.31 1.3-2.76 1.3-4.2.07-2.96-.96-5.02-3.09-6.4Z" fill="url(#S)"/>
  <path d="M261.02 106.32c-.55.2-1.38.42-2.4.55-1.04.14-2.55.21-4.48.21h-14.98v.2l1.5.56c.7.2 1.25.55 1.52 1.03s.48 1.44.62 2.89c.13 1.44.13 3.99.13 7.63v5.5c0 3.65-.07 6.2-.14 7.64a8.3 8.3 0 0 1-.62 2.9c-.27.47-.76.82-1.51 1.02l-1.52.55v.2h14.37v-.27l-2.2-.55c-1.03-.27-1.78-.69-2.2-1.23-.4-.56-.68-1.66-.82-3.38-.14-1.5-.2-3.99-.27-7.36l7.35 1.17v-3.37l-7.28 1.17v-6.18c0-5.65.07-8.75.28-9.36l3.16.4c1.92.22 3.37.63 4.26 1.1.9.5 1.65 1.38 2.27 2.62a38 38 0 0 1 2.2 6.4h.2l.7-12.04h-.14Z" fill="url(#T)"/>
  <path d="M173.77 133.7a85.26 85.26 0 0 1-6.94-10.11c.41-.14.9-.34 1.23-.48 2-.97 3.37-2.07 4.27-3.37.9-1.31 1.3-2.75 1.3-4.2 0-2.82-1.02-4.88-3.09-6.33-2.06-1.37-4.94-2.06-8.59-2.06h-12.51v.2l1.51.56c.69.2 1.24.55 1.51 1.03.28.48.48 1.44.62 2.89.07 1.37.14 3.92.14 7.56v5.5c0 3.65-.08 6.2-.21 7.64a8.27 8.27 0 0 1-.62 2.9c-.28.47-.76.82-1.52 1.02l-1.51.55v.2h14.71v-.2l-2.33-.55c-1.1-.2-1.86-.55-2.27-1.03-.41-.48-.69-1.44-.9-2.89-.2-1.44-.27-4.06-.27-7.63v-7.7c0-3.45.07-5.79.14-7.03.07-1.23.14-1.92.28-2.2h.76c2.54 0 4.53.62 5.98 1.93 1.44 1.3 2.2 3.37 2.2 6.33 0 1.92-.35 3.37-1.1 4.54a6.2 6.2 0 0 1-2.62 2.4c-.62.35-1.44.63-2.34.9l.14.28c.9 1.78 1.1 1.99 2.13 3.71 1.03 1.72 2.27 3.72 3.71 5.85.9 1.3 1.79 2.27 2.61 2.82.83.55 1.86.9 3.1.9.89 0 1.64-.08 2.26-.22.69-.13 1.38-.34 2.2-.61v-.21a8.13 8.13 0 0 1-3.99-2.89Z" fill="url(#U)"/>
  <path d="M192 106.46c-7.98 0-14.51 7.02-14.52 15.75 0 8.67 6.46 15.76 14.5 15.76 8.05 0 14.51-7.02 14.52-15.76 0-8.73-6.53-15.75-14.5-15.75Zm-.02 30.34c-4.47 0-8.1-6.54-8.1-14.66 0-8.11 3.65-14.65 8.11-14.65 4.47 0 8.11 6.54 8.11 14.65 0 8.12-3.65 14.66-8.12 14.66Z" fill="url(#V)"/>
  <path d="M224.03 106.46c-7.97 0-14.5 7.02-14.51 15.75 0 8.67 6.46 15.76 14.5 15.76 7.97 0 14.5-7.02 14.51-15.76-.06-8.73-6.52-15.75-14.5-15.75Zm-.01 30.34c-4.47 0-8.11-6.54-8.1-14.66 0-8.11 3.64-14.65 8.11-14.65 4.47 0 8.11 6.54 8.1 14.65 0 8.12-3.64 14.66-8.11 14.66Z" fill="url(#W)"/>
  <g opacity=".7" filter="url(#X)">
    <path opacity=".7" d="M130.41 113.5c8.84 0 16-2.47 16-5.52 0-3.05-7.16-5.52-16-5.52-8.83 0-16 2.47-16 5.52 0 3.05 7.17 5.52 16 5.52Z" fill="url(#Y)"/>
  </g>
  <g opacity=".6" filter="url(#Z)">
    <path opacity=".6" d="M131.8 109.64c4.1 0 7.44-.75 7.44-1.66 0-.92-3.33-1.66-7.45-1.66-4.1 0-7.44.74-7.44 1.66 0 .91 3.33 1.66 7.44 1.66Z" fill="url(#aa)"/>
  </g>
  <g opacity=".5" filter="url(#ab)">
    <path d="M247.35 129.5c4.58 0 8.28-2.47 8.28-5.51 0-3.05-3.7-5.52-8.27-5.52-4.57 0-8.28 2.47-8.28 5.52 0 3.04 3.7 5.52 8.27 5.52Z" fill="#87A0FF"/>
  </g>
  <g style="mix-blend-mode:screen" opacity=".5" filter="url(#ac)">
    <path d="M248.46 125.09c2.13 0 3.86-.5 3.86-1.1 0-.61-1.73-1.1-3.86-1.1s-3.86.49-3.86 1.1c0 .6 1.73 1.1 3.86 1.1Z" fill="#ACBCFF" style="mix-blend-mode:screen"/>
  </g>
  <g style="mix-blend-mode:screen" filter="url(#ad)">
    <path d="M230.3 113c.92 1.93 2.65 3.01 3.85 2.43 1.2-.58 1.4-2.6.48-4.53-.94-1.92-2.66-3-3.86-2.42-1.2.58-1.4 2.6-.48 4.53Z" fill="#C3B3FA" style="mix-blend-mode:screen"/>
  </g>
  <g opacity=".6" filter="url(#ae)">
    <path opacity=".7" d="M191.63 141.1c4.88 0 8.83-2.6 8.83-5.8 0-3.2-3.95-5.8-8.82-5.8-4.88 0-8.83 2.6-8.83 5.8 0 3.2 3.95 5.8 8.82 5.8Z" fill="#F4ADF5"/>
  </g>
  <g opacity=".5" filter="url(#af)">
    <path opacity=".5" d="M192.19 138.89c2.44 0 4.41-.87 4.41-1.93 0-1.07-1.97-1.94-4.41-1.94-2.44 0-4.41.87-4.41 1.94 0 1.06 1.97 1.93 4.4 1.93Z" fill="#F4ADF5"/>
  </g>
  <path fill-rule="evenodd" clip-rule="evenodd" d="M367.1 5.86H18.48c-7 0-12.69 5.69-12.7 12.7L5.7 226.1c0 7.01 5.68 12.7 12.68 12.7h348.64c7 0 12.7-5.69 12.7-12.7l.07-207.54c0-7.01-5.68-12.7-12.68-12.7ZM18.48 2.56h348.64a16 16 0 0 1 15.99 16l-.08 207.54a16 16 0 0 1-16 16H18.38a16 16 0 0 1-15.99-16l.08-207.54c0-8.84 7.17-16 16-16Z" fill="url(#ag)"/>
  <defs>
    <linearGradient id="a" x1=".73" y1="243.76" x2="384.93" y2="1.16" gradientUnits="userSpaceOnUse">
      <stop/>
      <stop offset=".14"/>
      <stop offset=".36" stop-color="#1B1D28"/>
      <stop offset=".54" stop-color="#111216"/>
      <stop offset=".76" stop-color="#090911"/>
      <stop offset="1"/>
    </linearGradient>
    <linearGradient id="b" x1="13.97" y1="232.72" x2="366" y2="4.24" gradientUnits="userSpaceOnUse">
      <stop stop-color="#262A3E"/>
      <stop offset=".32" stop-color="#414559"/>
      <stop offset=".41" stop-color="#4F567B"/>
      <stop offset=".76" stop-color="#2C345C"/>
      <stop offset="1" stop-color="#202229"/>
    </linearGradient>
    <linearGradient id="c" x1="13.97" y1="232.72" x2="366" y2="4.24" gradientUnits="userSpaceOnUse">
      <stop stop-color="#262A3E"/>
      <stop offset=".32" stop-color="#414559"/>
      <stop offset=".41" stop-color="#4F567B"/>
      <stop offset=".76" stop-color="#2C345C"/>
      <stop offset="1" stop-color="#202229"/>
    </linearGradient>
    <linearGradient id="d" x1="13.97" y1="232.72" x2="366" y2="4.24" gradientUnits="userSpaceOnUse">
      <stop stop-color="#262A3E"/>
      <stop offset=".32" stop-color="#414559"/>
      <stop offset=".41" stop-color="#4F567B"/>
      <stop offset=".76" stop-color="#2C345C"/>
      <stop offset="1" stop-color="#202229"/>
    </linearGradient>
    <linearGradient id="e" x1="13.97" y1="232.72" x2="366" y2="4.24" gradientUnits="userSpaceOnUse">
      <stop stop-color="#262A3E"/>
      <stop offset=".32" stop-color="#414559"/>
      <stop offset=".41" stop-color="#4F567B"/>
      <stop offset=".76" stop-color="#2C345C"/>
      <stop offset="1" stop-color="#202229"/>
    </linearGradient>
    <linearGradient id="f" x1="13.97" y1="232.72" x2="366" y2="4.24" gradientUnits="userSpaceOnUse">
      <stop stop-color="#262A3E"/>
      <stop offset=".32" stop-color="#414559"/>
      <stop offset=".41" stop-color="#4F567B"/>
      <stop offset=".76" stop-color="#2C345C"/>
      <stop offset="1" stop-color="#202229"/>
    </linearGradient>
    <linearGradient id="g" x1="13.97" y1="232.72" x2="366" y2="4.24" gradientUnits="userSpaceOnUse">
      <stop stop-color="#262A3E"/>
      <stop offset=".32" stop-color="#414559"/>
      <stop offset=".41" stop-color="#4F567B"/>
      <stop offset=".76" stop-color="#2C345C"/>
      <stop offset="1" stop-color="#202229"/>
    </linearGradient>
    <linearGradient id="h" x1="13.97" y1="232.72" x2="366" y2="4.24" gradientUnits="userSpaceOnUse">
      <stop stop-color="#262A3E"/>
      <stop offset=".32" stop-color="#414559"/>
      <stop offset=".41" stop-color="#4F567B"/>
      <stop offset=".76" stop-color="#2C345C"/>
      <stop offset="1" stop-color="#202229"/>
    </linearGradient>
    <linearGradient id="i" x1="13.97" y1="232.72" x2="366" y2="4.24" gradientUnits="userSpaceOnUse">
      <stop stop-color="#262A3E"/>
      <stop offset=".32" stop-color="#414559"/>
      <stop offset=".41" stop-color="#4F567B"/>
      <stop offset=".76" stop-color="#2C345C"/>
      <stop offset="1" stop-color="#202229"/>
    </linearGradient>
    <linearGradient id="j" x1="13.97" y1="232.72" x2="366" y2="4.24" gradientUnits="userSpaceOnUse">
      <stop stop-color="#262A3E"/>
      <stop offset=".32" stop-color="#414559"/>
      <stop offset=".41" stop-color="#4F567B"/>
      <stop offset=".76" stop-color="#2C345C"/>
      <stop offset="1" stop-color="#202229"/>
    </linearGradient>
    <linearGradient id="k" x1="13.97" y1="232.72" x2="366" y2="4.24" gradientUnits="userSpaceOnUse">
      <stop stop-color="#262A3E"/>
      <stop offset=".32" stop-color="#414559"/>
      <stop offset=".41" stop-color="#4F567B"/>
      <stop offset=".76" stop-color="#2C345C"/>
      <stop offset="1" stop-color="#202229"/>
    </linearGradient>
    <linearGradient id="l" x1="13.97" y1="232.72" x2="366" y2="4.24" gradientUnits="userSpaceOnUse">
      <stop stop-color="#262A3E"/>
      <stop offset=".32" stop-color="#414559"/>
      <stop offset=".41" stop-color="#4F567B"/>
      <stop offset=".76" stop-color="#2C345C"/>
      <stop offset="1" stop-color="#202229"/>
    </linearGradient>
    <linearGradient id="m" x1="13.97" y1="232.72" x2="366" y2="4.24" gradientUnits="userSpaceOnUse">
      <stop stop-color="#262A3E"/>
      <stop offset=".32" stop-color="#414559"/>
      <stop offset=".41" stop-color="#4F567B"/>
      <stop offset=".76" stop-color="#2C345C"/>
      <stop offset="1" stop-color="#202229"/>
    </linearGradient>
    <linearGradient id="n" x1="13.97" y1="232.72" x2="366" y2="4.24" gradientUnits="userSpaceOnUse">
      <stop stop-color="#262A3E"/>
      <stop offset=".32" stop-color="#414559"/>
      <stop offset=".41" stop-color="#4F567B"/>
      <stop offset=".76" stop-color="#2C345C"/>
      <stop offset="1" stop-color="#202229"/>
    </linearGradient>
    <linearGradient id="o" x1="13.97" y1="232.72" x2="366" y2="4.24" gradientUnits="userSpaceOnUse">
      <stop stop-color="#262A3E"/>
      <stop offset=".32" stop-color="#414559"/>
      <stop offset=".41" stop-color="#4F567B"/>
      <stop offset=".76" stop-color="#2C345C"/>
      <stop offset="1" stop-color="#202229"/>
    </linearGradient>
    <linearGradient id="p" x1="13.97" y1="232.72" x2="366" y2="4.24" gradientUnits="userSpaceOnUse">
      <stop stop-color="#262A3E"/>
      <stop offset=".32" stop-color="#414559"/>
      <stop offset=".41" stop-color="#4F567B"/>
      <stop offset=".76" stop-color="#2C345C"/>
      <stop offset="1" stop-color="#202229"/>
    </linearGradient>
    <linearGradient id="q" x1="13.97" y1="232.72" x2="366" y2="4.24" gradientUnits="userSpaceOnUse">
      <stop stop-color="#262A3E"/>
      <stop offset=".32" stop-color="#414559"/>
      <stop offset=".41" stop-color="#4F567B"/>
      <stop offset=".76" stop-color="#2C345C"/>
      <stop offset="1" stop-color="#202229"/>
    </linearGradient>
    <linearGradient id="r" x1="13.97" y1="232.72" x2="366" y2="4.24" gradientUnits="userSpaceOnUse">
      <stop stop-color="#262A3E"/>
      <stop offset=".32" stop-color="#414559"/>
      <stop offset=".41" stop-color="#4F567B"/>
      <stop offset=".76" stop-color="#2C345C"/>
      <stop offset="1" stop-color="#202229"/>
    </linearGradient>
    <linearGradient id="s" x1="13.97" y1="232.72" x2="366" y2="4.24" gradientUnits="userSpaceOnUse">
      <stop stop-color="#262A3E"/>
      <stop offset=".32" stop-color="#414559"/>
      <stop offset=".41" stop-color="#4F567B"/>
      <stop offset=".76" stop-color="#2C345C"/>
      <stop offset="1" stop-color="#202229"/>
    </linearGradient>
    <linearGradient id="t" x1="13.97" y1="232.72" x2="366" y2="4.24" gradientUnits="userSpaceOnUse">
      <stop stop-color="#262A3E"/>
      <stop offset=".32" stop-color="#414559"/>
      <stop offset=".41" stop-color="#4F567B"/>
      <stop offset=".76" stop-color="#2C345C"/>
      <stop offset="1" stop-color="#202229"/>
    </linearGradient>
    <linearGradient id="u" x1="13.97" y1="232.72" x2="366" y2="4.24" gradientUnits="userSpaceOnUse">
      <stop stop-color="#262A3E"/>
      <stop offset=".32" stop-color="#414559"/>
      <stop offset=".41" stop-color="#4F567B"/>
      <stop offset=".76" stop-color="#2C345C"/>
      <stop offset="1" stop-color="#202229"/>
    </linearGradient>
    <linearGradient id="v" x1="13.97" y1="232.72" x2="366" y2="4.24" gradientUnits="userSpaceOnUse">
      <stop stop-color="#262A3E"/>
      <stop offset=".32" stop-color="#414559"/>
      <stop offset=".41" stop-color="#4F567B"/>
      <stop offset=".76" stop-color="#2C345C"/>
      <stop offset="1" stop-color="#202229"/>
    </linearGradient>
    <linearGradient id="w" x1="13.97" y1="232.72" x2="366" y2="4.24" gradientUnits="userSpaceOnUse">
      <stop stop-color="#262A3E"/>
      <stop offset=".32" stop-color="#414559"/>
      <stop offset=".41" stop-color="#4F567B"/>
      <stop offset=".76" stop-color="#2C345C"/>
      <stop offset="1" stop-color="#202229"/>
    </linearGradient>
    <linearGradient id="x" x1="13.97" y1="232.72" x2="366" y2="4.24" gradientUnits="userSpaceOnUse">
      <stop stop-color="#262A3E"/>
      <stop offset=".32" stop-color="#414559"/>
      <stop offset=".41" stop-color="#4F567B"/>
      <stop offset=".76" stop-color="#2C345C"/>
      <stop offset="1" stop-color="#202229"/>
    </linearGradient>
    <linearGradient id="y" x1="13.97" y1="232.72" x2="366" y2="4.24" gradientUnits="userSpaceOnUse">
      <stop stop-color="#262A3E"/>
      <stop offset=".32" stop-color="#414559"/>
      <stop offset=".41" stop-color="#4F567B"/>
      <stop offset=".76" stop-color="#2C345C"/>
      <stop offset="1" stop-color="#202229"/>
    </linearGradient>
    <linearGradient id="z" x1="13.97" y1="232.72" x2="366" y2="4.24" gradientUnits="userSpaceOnUse">
      <stop stop-color="#262A3E"/>
      <stop offset=".32" stop-color="#414559"/>
      <stop offset=".41" stop-color="#4F567B"/>
      <stop offset=".76" stop-color="#2C345C"/>
      <stop offset="1" stop-color="#202229"/>
    </linearGradient>
    <linearGradient id="A" x1="13.97" y1="232.72" x2="366" y2="4.24" gradientUnits="userSpaceOnUse">
      <stop stop-color="#262A3E"/>
      <stop offset=".32" stop-color="#414559"/>
      <stop offset=".41" stop-color="#4F567B"/>
      <stop offset=".76" stop-color="#2C345C"/>
      <stop offset="1" stop-color="#202229"/>
    </linearGradient>
    <linearGradient id="B" x1="13.97" y1="232.72" x2="366" y2="4.24" gradientUnits="userSpaceOnUse">
      <stop stop-color="#262A3E"/>
      <stop offset=".32" stop-color="#414559"/>
      <stop offset=".41" stop-color="#4F567B"/>
      <stop offset=".76" stop-color="#2C345C"/>
      <stop offset="1" stop-color="#202229"/>
    </linearGradient>
    <linearGradient id="C" x1="13.97" y1="232.72" x2="366" y2="4.24" gradientUnits="userSpaceOnUse">
      <stop stop-color="#262A3E"/>
      <stop offset=".32" stop-color="#414559"/>
      <stop offset=".41" stop-color="#4F567B"/>
      <stop offset=".76" stop-color="#2C345C"/>
      <stop offset="1" stop-color="#202229"/>
    </linearGradient>
    <linearGradient id="D" x1="13.97" y1="232.72" x2="366" y2="4.24" gradientUnits="userSpaceOnUse">
      <stop stop-color="#262A3E"/>
      <stop offset=".32" stop-color="#414559"/>
      <stop offset=".41" stop-color="#4F567B"/>
      <stop offset=".76" stop-color="#2C345C"/>
      <stop offset="1" stop-color="#202229"/>
    </linearGradient>
    <linearGradient id="E" x1="13.97" y1="232.72" x2="366" y2="4.24" gradientUnits="userSpaceOnUse">
      <stop stop-color="#262A3E"/>
      <stop offset=".32" stop-color="#414559"/>
      <stop offset=".41" stop-color="#4F567B"/>
      <stop offset=".76" stop-color="#2C345C"/>
      <stop offset="1" stop-color="#202229"/>
    </linearGradient>
    <linearGradient id="F" x1="13.97" y1="232.72" x2="366" y2="4.24" gradientUnits="userSpaceOnUse">
      <stop stop-color="#262A3E"/>
      <stop offset=".32" stop-color="#414559"/>
      <stop offset=".41" stop-color="#4F567B"/>
      <stop offset=".76" stop-color="#2C345C"/>
      <stop offset="1" stop-color="#202229"/>
    </linearGradient>
    <linearGradient id="G" x1="13.97" y1="232.72" x2="366" y2="4.24" gradientUnits="userSpaceOnUse">
      <stop stop-color="#262A3E"/>
      <stop offset=".32" stop-color="#414559"/>
      <stop offset=".41" stop-color="#4F567B"/>
      <stop offset=".76" stop-color="#2C345C"/>
      <stop offset="1" stop-color="#202229"/>
    </linearGradient>
    <linearGradient id="H" x1="13.97" y1="232.72" x2="366" y2="4.24" gradientUnits="userSpaceOnUse">
      <stop stop-color="#262A3E"/>
      <stop offset=".32" stop-color="#414559"/>
      <stop offset=".41" stop-color="#4F567B"/>
      <stop offset=".76" stop-color="#2C345C"/>
      <stop offset="1" stop-color="#202229"/>
    </linearGradient>
    <linearGradient id="I" x1="124.17" y1="146.62" x2="260.06" y2="161.55" gradientUnits="userSpaceOnUse">
      <stop stop-color="#FAE4E3"/>
      <stop offset=".52" stop-color="#F4B9FD"/>
      <stop offset="1" stop-color="#A2B7F9"/>
    </linearGradient>
    <linearGradient id="J" x1="124.17" y1="146.62" x2="260.06" y2="161.55" gradientUnits="userSpaceOnUse">
      <stop stop-color="#FAE4E3"/>
      <stop offset=".52" stop-color="#F4B9FD"/>
      <stop offset="1" stop-color="#A2B7F9"/>
    </linearGradient>
    <linearGradient id="K" x1="124.17" y1="146.62" x2="260.06" y2="161.55" gradientUnits="userSpaceOnUse">
      <stop stop-color="#FAE4E3"/>
      <stop offset=".52" stop-color="#F4B9FD"/>
      <stop offset="1" stop-color="#A2B7F9"/>
    </linearGradient>
    <linearGradient id="L" x1="124.17" y1="146.62" x2="260.06" y2="161.55" gradientUnits="userSpaceOnUse">
      <stop stop-color="#FAE4E3"/>
      <stop offset=".52" stop-color="#F4B9FD"/>
      <stop offset="1" stop-color="#A2B7F9"/>
    </linearGradient>
    <linearGradient id="M" x1="124.17" y1="146.62" x2="260.06" y2="161.55" gradientUnits="userSpaceOnUse">
      <stop stop-color="#FAE4E3"/>
      <stop offset=".52" stop-color="#F4B9FD"/>
      <stop offset="1" stop-color="#A2B7F9"/>
    </linearGradient>
    <linearGradient id="N" x1="124.17" y1="146.62" x2="260.06" y2="161.55" gradientUnits="userSpaceOnUse">
      <stop stop-color="#FAE4E3"/>
      <stop offset=".52" stop-color="#F4B9FD"/>
      <stop offset="1" stop-color="#A2B7F9"/>
    </linearGradient>
    <linearGradient id="O" x1="124.17" y1="146.62" x2="260.06" y2="161.55" gradientUnits="userSpaceOnUse">
      <stop stop-color="#FAE4E3"/>
      <stop offset=".52" stop-color="#F4B9FD"/>
      <stop offset="1" stop-color="#A2B7F9"/>
    </linearGradient>
    <linearGradient id="P" x1="124.17" y1="146.62" x2="260.06" y2="161.55" gradientUnits="userSpaceOnUse">
      <stop stop-color="#FAE4E3"/>
      <stop offset=".52" stop-color="#F4B9FD"/>
      <stop offset="1" stop-color="#A2B7F9"/>
    </linearGradient>
    <linearGradient id="Q" x1="124.17" y1="146.62" x2="260.06" y2="161.55" gradientUnits="userSpaceOnUse">
      <stop stop-color="#FAE4E3"/>
      <stop offset=".52" stop-color="#F4B9FD"/>
      <stop offset="1" stop-color="#A2B7F9"/>
    </linearGradient>
    <linearGradient id="R" x1="124.17" y1="146.62" x2="260.06" y2="161.55" gradientUnits="userSpaceOnUse">
      <stop stop-color="#FAE4E3"/>
      <stop offset=".52" stop-color="#F4B9FD"/>
      <stop offset="1" stop-color="#A2B7F9"/>
    </linearGradient>
    <linearGradient id="S" x1="124.35" y1="106.32" x2="261.63" y2="108.61" gradientUnits="userSpaceOnUse">
      <stop stop-color="#F2D0CF"/>
      <stop offset=".52" stop-color="#F4B4FE"/>
      <stop offset="1" stop-color="#9EB3F7"/>
    </linearGradient>
    <linearGradient id="T" x1="124.35" y1="106.32" x2="261.63" y2="108.61" gradientUnits="userSpaceOnUse">
      <stop stop-color="#F2D0CF"/>
      <stop offset=".52" stop-color="#F4B4FE"/>
      <stop offset="1" stop-color="#9EB3F7"/>
    </linearGradient>
    <linearGradient id="U" x1="124.35" y1="106.32" x2="261.63" y2="108.61" gradientUnits="userSpaceOnUse">
      <stop stop-color="#F2D0CF"/>
      <stop offset=".52" stop-color="#F4B4FE"/>
      <stop offset="1" stop-color="#9EB3F7"/>
    </linearGradient>
    <linearGradient id="V" x1="124.35" y1="106.32" x2="261.63" y2="108.61" gradientUnits="userSpaceOnUse">
      <stop stop-color="#F2D0CF"/>
      <stop offset=".52" stop-color="#F4B4FE"/>
      <stop offset="1" stop-color="#9EB3F7"/>
    </linearGradient>
    <linearGradient id="W" x1="124.35" y1="106.32" x2="261.63" y2="108.61" gradientUnits="userSpaceOnUse">
      <stop stop-color="#F2D0CF"/>
      <stop offset=".52" stop-color="#F4B4FE"/>
      <stop offset="1" stop-color="#9EB3F7"/>
    </linearGradient>
    <linearGradient id="ag" x1="2.47" y1="2.55" x2="384.53" y2="4.99" gradientUnits="userSpaceOnUse">
      <stop stop-color="#F5CDCB"/>
      <stop offset=".52" stop-color="#F3A4FF"/>
      <stop offset="1" stop-color="#86A3FF"/>
    </linearGradient>
    <filter id="X" x="82.42" y="70.46" width="96" height="75.04" filterUnits="userSpaceOnUse" color-interpolation-filters="sRGB">
      <feFlood flood-opacity="0" result="BackgroundImageFix"/>
      <feBlend in="SourceGraphic" in2="BackgroundImageFix" result="shape"/>
      <feGaussianBlur stdDeviation="16" result="effect1_foregroundBlur_596_154"/>
    </filter>
    <filter id="Z" x="109.35" y="91.32" width="44.89" height="33.31" filterUnits="userSpaceOnUse" color-interpolation-filters="sRGB">
      <feFlood flood-opacity="0" result="BackgroundImageFix"/>
      <feBlend in="SourceGraphic" in2="BackgroundImageFix" result="shape"/>
      <feGaussianBlur stdDeviation="7.5" result="effect1_foregroundBlur_596_154"/>
    </filter>
    <filter id="ab" x="199.08" y="78.47" width="96.55" height="91.04" filterUnits="userSpaceOnUse" color-interpolation-filters="sRGB">
      <feFlood flood-opacity="0" result="BackgroundImageFix"/>
      <feBlend in="SourceGraphic" in2="BackgroundImageFix" result="shape"/>
      <feGaussianBlur stdDeviation="20" result="effect1_foregroundBlur_596_154"/>
    </filter>
    <filter id="ac" x="188.6" y="66.88" width="119.72" height="114.21" filterUnits="userSpaceOnUse" color-interpolation-filters="sRGB">
      <feFlood flood-opacity="0" result="BackgroundImageFix"/>
      <feBlend in="SourceGraphic" in2="BackgroundImageFix" result="shape"/>
      <feGaussianBlur stdDeviation="28" result="effect1_foregroundBlur_596_154"/>
    </filter>
    <filter id="ad" x="193.71" y="72.32" width="77.49" height="79.26" filterUnits="userSpaceOnUse" color-interpolation-filters="sRGB">
      <feFlood flood-opacity="0" result="BackgroundImageFix"/>
      <feBlend in="SourceGraphic" in2="BackgroundImageFix" result="shape"/>
      <feGaussianBlur stdDeviation="18" result="effect1_foregroundBlur_596_154"/>
    </filter>
    <filter id="ae" x="110.81" y="57.51" width="161.65" height="155.59" filterUnits="userSpaceOnUse" color-interpolation-filters="sRGB">
      <feFlood flood-opacity="0" result="BackgroundImageFix"/>
      <feBlend in="SourceGraphic" in2="BackgroundImageFix" result="shape"/>
      <feGaussianBlur stdDeviation="36" result="effect1_foregroundBlur_596_154"/>
    </filter>
    <filter id="af" x="163.78" y="111.03" width="56.83" height="51.86" filterUnits="userSpaceOnUse" color-interpolation-filters="sRGB">
      <feFlood flood-opacity="0" result="BackgroundImageFix"/>
      <feBlend in="SourceGraphic" in2="BackgroundImageFix" result="shape"/>
      <feGaussianBlur stdDeviation="12" result="effect1_foregroundBlur_596_154"/>
    </filter>
    <radialGradient id="Y" cx="0" cy="0" r="1" gradientUnits="userSpaceOnUse" gradientTransform="rotate(90.02 11.24 119.17) scale(5.5197 15.9976)">
      <stop stop-color="#F3CFD3"/>
      <stop offset="1" stop-color="#F3CFD3" stop-opacity="0"/>
    </radialGradient>
    <radialGradient id="aa" cx="0" cy="0" r="1" gradientUnits="userSpaceOnUse" gradientTransform="rotate(90.02 11.93 119.86) scale(1.65591 7.44716)">
      <stop stop-color="#F3CFD3"/>
      <stop offset="1" stop-color="#F3CFD3" stop-opacity="0"/>
    </radialGradient>
  </defs>
</svg>